<svg width="26" height="33" viewBox="0 0 26 33" fill="none" xmlns="http://www.w3.org/2000/svg">
<g clip-path="url(#clip0_173_82)" filter="url(#filter0_d_173_82)">
<path fill-rule="evenodd" clip-rule="evenodd" d="M18.2857 18.8571V9.71429H21.7143V18.8571H18.2857ZM19.4286 4H20.5714V9.14286H19.4286V4ZM11.4286 6.85714H14.8571V10.8571H11.4286V6.85714ZM12.5714 0H13.7143V6.28571H12.5714V0ZM4 10.8571H7.42857V18.8571H4V10.8571ZM5.14286 6.28571H6.28571V10.2857H5.14286V6.28571ZM6.28571 23.4286H5.14286V19.4286H6.28571V23.4286ZM13.7143 28H12.5714V11.4286H13.7143V28ZM20.5714 24.5714H19.4286V19.4286H20.5714V24.5714Z" fill="#FFD762"/>
</g>
<defs>
<filter id="filter0_d_173_82" x="0" y="0" width="25.7143" height="36" filterUnits="userSpaceOnUse" color-interpolation-filters="sRGB">
<feFlood flood-opacity="0" result="BackgroundImageFix"/>
<feColorMatrix in="SourceAlpha" type="matrix" values="0 0 0 0 0 0 0 0 0 0 0 0 0 0 0 0 0 0 127 0" result="hardAlpha"/>
<feOffset dy="4"/>
<feGaussianBlur stdDeviation="2"/>
<feComposite in2="hardAlpha" operator="out"/>
<feColorMatrix type="matrix" values="0 0 0 0 0 0 0 0 0 0 0 0 0 0 0 0 0 0 0.25 0"/>
<feBlend mode="normal" in2="BackgroundImageFix" result="effect1_dropShadow_173_82"/>
<feBlend mode="normal" in="SourceGraphic" in2="effect1_dropShadow_173_82" result="shape"/>
</filter>
<clipPath id="clip0_173_82">
<rect width="17.7143" height="28" fill="white" transform="translate(4)"/>
</clipPath>
</defs>
</svg>
