<svg width="26" height="25" viewBox="0 0 26 25" fill="none" xmlns="http://www.w3.org/2000/svg">
<g clip-path="url(#clip0_144_591)">
<path d="M25.654 9.4832C25.561 9.20547 25.3204 9.00313 25.031 8.95859L17.3458 7.78437L13.9024 0.449219C13.7735 0.175 13.4978 0 13.195 0C12.8923 0 12.6169 0.175 12.4876 0.449219L9.04423 7.78437L1.35908 8.95898C1.06963 9.00313 0.829391 9.20586 0.736032 9.48359C0.643063 9.76094 0.712985 10.0672 0.917672 10.277L6.50127 16.0023L5.18174 24.0898C5.1333 24.3852 5.25791 24.6824 5.50283 24.8543C5.6372 24.9492 5.79463 24.9973 5.95244 24.9973C6.08213 24.9973 6.21259 24.9645 6.33056 24.8996L13.1946 21.1031L20.0587 24.8996C20.1767 24.9645 20.3071 24.9973 20.4368 24.9973C20.5946 24.9973 20.7524 24.9492 20.8864 24.8543C21.1313 24.6824 21.256 24.3852 21.2075 24.0898L19.888 16.0023L25.4716 10.277C25.6767 10.0668 25.747 9.76055 25.654 9.4832Z" fill="#4FBC85"/>
</g>
<path d="M16.2701 9.802H11.9581L11.1741 13.19C11.4541 12.9287 11.7994 12.742 12.2101 12.63C12.6114 12.518 12.9754 12.462 13.3021 12.462C14.2821 12.462 15.0847 12.7607 15.7101 13.358C16.3354 13.9553 16.6481 14.7533 16.6481 15.752C16.6481 16.8347 16.2747 17.67 15.5281 18.258C14.8094 18.818 13.9927 19.098 13.0781 19.098C11.8554 19.098 10.8987 18.6593 10.2081 17.782C9.86273 17.3433 9.65739 16.8533 9.59206 16.312L10.6281 16.074C10.7307 16.69 11.0061 17.1753 11.4541 17.53C11.9021 17.9127 12.4574 18.104 13.1201 18.104C13.4934 18.104 13.8574 18.034 14.2121 17.894C14.5667 17.7447 14.8841 17.488 15.1641 17.124C15.4441 16.7507 15.5841 16.3027 15.5841 15.78C15.5841 14.9587 15.3227 14.352 14.8001 13.96C14.3147 13.5867 13.7547 13.4 13.1201 13.4C12.7561 13.4 12.3641 13.4933 11.9441 13.68C11.5521 13.876 11.2254 14.1327 10.9641 14.45L9.97006 14.058L11.1741 8.794H16.2701V9.802Z" fill="black"/>
<defs>
<clipPath id="clip0_144_591">
<rect width="25" height="25" fill="white" transform="translate(0.695801)"/>
</clipPath>
</defs>
</svg>
