<svg width="28" height="28" viewBox="0 0 28 28" fill="none" xmlns="http://www.w3.org/2000/svg">
<path d="M26.0535 6.8334C24.9785 6.8334 24.1052 7.705 24.1052 8.77994C24.1052 9.46441 24.459 10.0668 24.993 10.4137C24.4863 12.1518 23.4677 14.6811 22.5449 15.2057C20.7923 16.2012 19.2038 14.6964 19.9729 10.5735C20.947 10.4667 21.7058 9.64039 21.7058 8.63808C21.7058 7.56227 20.8342 6.69071 19.7584 6.69071C18.6827 6.69071 17.8111 7.56232 17.8111 8.63808C17.8111 9.30204 18.1443 9.88736 18.6519 10.2394C18.1324 12.5397 17.3667 13.4582 16.4336 13.3309C15.0237 13.1386 14.7656 10.5957 14.7434 7.04525C15.451 6.75388 15.9474 6.05743 15.9474 5.24571C15.9474 4.16989 15.0758 3.29834 14.0001 3.29834C12.9251 3.29834 12.0535 4.16995 12.0535 5.24571C12.0535 6.05749 12.5508 6.75388 13.2566 7.04525C13.2344 10.5957 12.9772 13.1387 11.5664 13.331C10.6333 13.4583 9.86765 12.5397 9.34899 10.2394C9.85742 9.88736 10.1889 9.30204 10.1889 8.63814C10.1889 7.56232 9.31733 6.69077 8.24239 6.69077C7.1657 6.69077 6.29415 7.56238 6.29415 8.63814C6.29415 9.64045 7.05294 10.4668 8.02709 10.5736C8.79616 14.6965 7.20847 16.2013 5.45677 15.2058C4.53223 14.6811 3.51455 12.1518 3.00781 10.4137C3.54189 10.0668 3.89479 9.46441 3.89479 8.77994C3.89479 7.705 3.02318 6.8334 1.94655 6.8334C0.87243 6.8334 0 7.705 0 8.77994C0 9.79762 0.780992 10.6316 1.77565 10.7197L3.18298 20.3267H24.8178L26.2244 10.7197C27.2198 10.6316 28 9.79762 28 8.77994C28 7.705 27.1284 6.8334 26.0535 6.8334Z" fill="#FFD762"/>
<path d="M3.82384 24.7017H14H24.177L24.5615 22.0767H3.43933L3.82384 24.7017Z" fill="#FFD762"/>
</svg>
