<svg width="90" height="27" viewBox="0 0 90 27" fill="none" xmlns="http://www.w3.org/2000/svg">
<g clip-path="url(#clip0_322_3178)">
<path d="M31.5958 10.0532H38.2979L43.3245 24.4628L31.5958 10.0532Z" fill="#960E89"/>
<path d="M58.4043 10.0532H51.7021L46.6755 24.4628L58.4043 10.0532Z" fill="#960E89"/>
<path d="M45 25.133L39.9734 10.0532H50.0266L45 25.133Z" fill="#960E89"/>
<path d="M38.2979 8.37767H31.5958L34.9468 3.35107L38.2979 8.37767Z" fill="#960E89"/>
<path d="M58.4043 8.37767H51.7021L55.0532 3.35107L58.4043 8.37767Z" fill="#960E89"/>
<path d="M48.3511 8.37767H41.6489L45 3.35107L48.3511 8.37767Z" fill="#960E89"/>
<path d="M37.192 3.35107H43.3245L39.9734 8.37767L37.192 3.35107Z" fill="#960E89"/>
<path d="M46.6755 3.35107H53.3777L50.0266 8.37767L46.6755 3.35107Z" fill="#960E89"/>
</g>
<g clip-path="url(#clip1_322_3178)">
<path d="M14.3619 11.25H18.6704L21.9018 20.5133L14.3619 11.25Z" fill="#960E89"/>
<path d="M31.5959 11.25H27.2874L24.056 20.5133L31.5959 11.25Z" fill="#960E89"/>
<path d="M22.9789 20.9441L19.7475 11.25H26.2103L22.9789 20.9441Z" fill="#960E89"/>
<path d="M18.6704 10.1729H14.3619L16.5161 6.94153L18.6704 10.1729Z" fill="#960E89"/>
<path d="M31.5959 10.1729H27.2874L29.4417 6.94153L31.5959 10.1729Z" fill="#960E89"/>
<path d="M25.1332 10.1729H20.8246L22.9789 6.94153L25.1332 10.1729Z" fill="#960E89"/>
<path d="M17.9595 6.94153H21.9018L19.7475 10.1729L17.9595 6.94153Z" fill="#960E89"/>
<path d="M24.056 6.94153H28.3645L26.2103 10.1729L24.056 6.94153Z" fill="#960E89"/>
</g>
<g clip-path="url(#clip2_322_3178)">
<path d="M58.4042 11.25H62.7127L65.9441 20.5133L58.4042 11.25Z" fill="#960E89"/>
<path d="M75.6383 11.25H71.3298L68.0984 20.5133L75.6383 11.25Z" fill="#960E89"/>
<path d="M67.0212 20.9441L63.7899 11.25H70.2526L67.0212 20.9441Z" fill="#960E89"/>
<path d="M62.7127 10.1729H58.4042L60.5585 6.94153L62.7127 10.1729Z" fill="#960E89"/>
<path d="M75.6383 10.1729H71.3298L73.484 6.94153L75.6383 10.1729Z" fill="#960E89"/>
<path d="M69.1755 10.1729H64.867L67.0213 6.94153L69.1755 10.1729Z" fill="#960E89"/>
<path d="M62.0018 6.94153H65.9441L63.7899 10.1729L62.0018 6.94153Z" fill="#960E89"/>
<path d="M68.0984 6.94153H72.4069L70.2526 10.1729L68.0984 6.94153Z" fill="#960E89"/>
</g>
<g clip-path="url(#clip3_322_3178)">
<path d="M0 12.686H3.35106L5.86436 19.8908L0 12.686Z" fill="#960E89"/>
<path d="M13.4043 12.686H10.0532L7.53992 19.8908L13.4043 12.686Z" fill="#960E89"/>
<path d="M6.70214 20.2259L4.18884 12.686H9.21544L6.70214 20.2259Z" fill="#960E89"/>
<path d="M3.35106 11.8483H0L1.67553 9.33496L3.35106 11.8483Z" fill="#960E89"/>
<path d="M13.4043 11.8483H10.0532L11.7288 9.33496L13.4043 11.8483Z" fill="#960E89"/>
<path d="M8.37768 11.8483H5.02661L6.70214 9.33496L8.37768 11.8483Z" fill="#960E89"/>
<path d="M2.79816 9.33496H5.86438L4.18885 11.8483L2.79816 9.33496Z" fill="#960E89"/>
<path d="M7.53992 9.33496H10.891L9.21545 11.8483L7.53992 9.33496Z" fill="#960E89"/>
</g>
<g clip-path="url(#clip4_322_3178)">
<path d="M76.5958 12.686H79.9468L82.4601 19.8908L76.5958 12.686Z" fill="#960E89"/>
<path d="M90 12.686H86.649L84.1357 19.8908L90 12.686Z" fill="#960E89"/>
<path d="M83.2979 20.2259L80.7846 12.686H85.8112L83.2979 20.2259Z" fill="#960E89"/>
<path d="M79.9468 11.8483H76.5958L78.2713 9.33496L79.9468 11.8483Z" fill="#960E89"/>
<path d="M90 11.8483H86.6489L88.3245 9.33496L90 11.8483Z" fill="#960E89"/>
<path d="M84.9734 11.8483H81.6224L83.2979 9.33496L84.9734 11.8483Z" fill="#960E89"/>
<path d="M79.3939 9.33496H82.4601L80.7846 11.8483L79.3939 9.33496Z" fill="#960E89"/>
<path d="M84.1357 9.33496H87.4867L85.8112 11.8483L84.1357 9.33496Z" fill="#960E89"/>
</g>
<defs>
<clipPath id="clip0_322_3178">
<rect width="26.8085" height="26.8085" fill="white" transform="translate(31.5958)"/>
</clipPath>
<clipPath id="clip1_322_3178">
<rect width="17.234" height="17.234" fill="white" transform="translate(14.3619 4.78723)"/>
</clipPath>
<clipPath id="clip2_322_3178">
<rect width="17.234" height="17.234" fill="white" transform="translate(58.4042 4.78723)"/>
</clipPath>
<clipPath id="clip3_322_3178">
<rect width="13.4043" height="13.4043" fill="white" transform="translate(0 7.65942)"/>
</clipPath>
<clipPath id="clip4_322_3178">
<rect width="13.4043" height="13.4043" fill="white" transform="translate(76.5958 7.65942)"/>
</clipPath>
</defs>
</svg>
