<svg width="120" height="36" viewBox="0 0 120 36" fill="none" xmlns="http://www.w3.org/2000/svg">
<g clip-path="url(#clip0_279_750)">
<path d="M42.1279 13.4043H51.0641L57.7662 32.6171L42.1279 13.4043Z" fill="#66BF95"/>
<path d="M77.8727 13.4043H68.9365L62.2344 32.6171L77.8727 13.4043Z" fill="#66BF95"/>
<path d="M60.0005 33.5107L53.2983 13.4043H66.7026L60.0005 33.5107Z" fill="#83FFC4"/>
<path d="M51.0641 11.1701H42.1279L46.596 4.46802L51.0641 11.1701Z" fill="#66BF95"/>
<path d="M77.8727 11.1701H68.9365L73.4046 4.46802L77.8727 11.1701Z" fill="#66BF95"/>
<path d="M64.4684 11.1701H55.5322L60.0003 4.46802L64.4684 11.1701Z" fill="#66BF95"/>
<path d="M49.5898 4.46802H57.7664L53.2984 11.1701L49.5898 4.46802Z" fill="#83FFC4"/>
<path d="M62.2344 4.46802H71.1705L66.7025 11.1701L62.2344 4.46802Z" fill="#83FFC4"/>
</g>
<g clip-path="url(#clip1_279_750)">
<path d="M19.1494 14.9998H24.8941L29.2026 27.3508L19.1494 14.9998Z" fill="#66BF95"/>
<path d="M42.1279 14.9998H36.3832L32.0747 27.3508L42.1279 14.9998Z" fill="#66BF95"/>
<path d="M30.6386 27.9253L26.3301 14.9998H34.9471L30.6386 27.9253Z" fill="#83FFC4"/>
<path d="M24.8941 13.5636H19.1494L22.0218 9.25513L24.8941 13.5636Z" fill="#66BF95"/>
<path d="M42.128 13.5636H36.3833L39.2556 9.25513L42.128 13.5636Z" fill="#66BF95"/>
<path d="M33.5113 13.5636H27.7666L30.6389 9.25513L33.5113 13.5636Z" fill="#66BF95"/>
<path d="M23.9463 9.25513H29.2027L26.3303 13.5636L23.9463 9.25513Z" fill="#83FFC4"/>
<path d="M32.0747 9.25513H37.8194L34.947 13.5636L32.0747 9.25513Z" fill="#83FFC4"/>
</g>
<g clip-path="url(#clip2_279_750)">
<path d="M77.8721 14.9998H83.6168L87.9253 27.3508L77.8721 14.9998Z" fill="#66BF95"/>
<path d="M100.851 14.9998H95.1059L90.7974 27.3508L100.851 14.9998Z" fill="#66BF95"/>
<path d="M89.3612 27.9253L85.0527 14.9998H93.6698L89.3612 27.9253Z" fill="#83FFC4"/>
<path d="M83.6168 13.5636H77.8721L80.7444 9.25513L83.6168 13.5636Z" fill="#66BF95"/>
<path d="M100.851 13.5636H95.106L97.9783 9.25513L100.851 13.5636Z" fill="#66BF95"/>
<path d="M92.2339 13.5636H86.4893L89.3616 9.25513L92.2339 13.5636Z" fill="#66BF95"/>
<path d="M82.6689 9.25513H87.9253L85.053 13.5636L82.6689 9.25513Z" fill="#83FFC4"/>
<path d="M90.7974 9.25513H96.542L93.6697 13.5636L90.7974 9.25513Z" fill="#83FFC4"/>
</g>
<g clip-path="url(#clip3_279_750)">
<path d="M0 16.9148H4.46809L7.81915 26.5212L0 16.9148Z" fill="#66BF95"/>
<path d="M17.8724 16.9148H13.4043L10.0532 26.5212L17.8724 16.9148Z" fill="#66BF95"/>
<path d="M8.93602 26.968L5.58496 16.9148H12.2871L8.93602 26.968Z" fill="#83FFC4"/>
<path d="M4.46809 15.7978H0L2.23404 12.4468L4.46809 15.7978Z" fill="#66BF95"/>
<path d="M17.8724 15.7978H13.4043L15.6383 12.4468L17.8724 15.7978Z" fill="#66BF95"/>
<path d="M11.1702 15.7978H6.70215L8.93619 12.4468L11.1702 15.7978Z" fill="#66BF95"/>
<path d="M3.73096 12.4468H7.81925L5.58521 15.7978L3.73096 12.4468Z" fill="#83FFC4"/>
<path d="M10.0532 12.4468H14.5213L12.2873 15.7978L10.0532 12.4468Z" fill="#83FFC4"/>
</g>
<g clip-path="url(#clip4_279_750)">
<path d="M102.128 16.9148H106.596L109.947 26.5212L102.128 16.9148Z" fill="#66BF95"/>
<path d="M120 16.9148H115.532L112.181 26.5212L120 16.9148Z" fill="#66BF95"/>
<path d="M111.064 26.968L107.713 16.9148H114.415L111.064 26.968Z" fill="#83FFC4"/>
<path d="M106.596 15.7978H102.128L104.362 12.4468L106.596 15.7978Z" fill="#66BF95"/>
<path d="M120 15.7978H115.532L117.766 12.4468L120 15.7978Z" fill="#66BF95"/>
<path d="M113.298 15.7978H108.83L111.064 12.4468L113.298 15.7978Z" fill="#66BF95"/>
<path d="M105.859 12.4468H109.947L107.713 15.7978L105.859 12.4468Z" fill="#83FFC4"/>
<path d="M112.181 12.4468H116.649L114.415 15.7978L112.181 12.4468Z" fill="#83FFC4"/>
</g>
<defs>
<clipPath id="clip0_279_750">
<rect width="35.7447" height="35.7447" fill="white" transform="translate(42.1279)"/>
</clipPath>
<clipPath id="clip1_279_750">
<rect width="22.9787" height="22.9787" fill="white" transform="translate(19.1494 6.38281)"/>
</clipPath>
<clipPath id="clip2_279_750">
<rect width="22.9787" height="22.9787" fill="white" transform="translate(77.8721 6.38281)"/>
</clipPath>
<clipPath id="clip3_279_750">
<rect width="17.8723" height="17.8723" fill="white" transform="translate(0 10.2126)"/>
</clipPath>
<clipPath id="clip4_279_750">
<rect width="17.8723" height="17.8723" fill="white" transform="translate(102.128 10.2126)"/>
</clipPath>
</defs>
</svg>
