<svg width="26" height="25" viewBox="0 0 26 25" fill="none" xmlns="http://www.w3.org/2000/svg">
<g clip-path="url(#clip0_144_567)">
<path d="M25.2624 9.4832C25.1694 9.20547 24.9288 9.00313 24.6394 8.95859L16.9542 7.78437L13.5108 0.449219C13.3819 0.175 13.1061 0 12.8034 0C12.5007 0 12.2253 0.175 12.096 0.449219L8.65263 7.78437L0.967477 8.95898C0.678024 9.00313 0.437789 9.20586 0.34443 9.48359C0.251461 9.76094 0.321383 10.0672 0.526071 10.277L6.10966 16.0023L4.79013 24.0898C4.7417 24.3852 4.8663 24.6824 5.11123 24.8543C5.2456 24.9492 5.40302 24.9973 5.56084 24.9973C5.69052 24.9973 5.82099 24.9645 5.93896 24.8996L12.803 21.1031L19.6671 24.8996C19.7851 24.9645 19.9155 24.9973 20.0452 24.9973C20.203 24.9973 20.3608 24.9492 20.4948 24.8543C20.7397 24.6824 20.8644 24.3852 20.8159 24.0898L19.4964 16.0023L25.08 10.277C25.2851 10.0668 25.3554 9.76055 25.2624 9.4832Z" fill="#BF9058"/>
</g>
<path d="M16.2223 19H9.33428V18.678C9.33428 17.2687 10.1229 16.074 11.7003 15.094L13.2403 14.142C13.5016 13.9927 13.7396 13.834 13.9543 13.666C14.0756 13.5727 14.2576 13.4047 14.5003 13.162C14.8549 12.7607 15.0323 12.28 15.0323 11.72C15.0323 11.188 14.8176 10.712 14.3883 10.292C13.9589 9.88133 13.4269 9.676 12.7923 9.676C12.2789 9.676 11.8403 9.802 11.4763 10.054C11.1309 10.306 10.8696 10.614 10.6923 10.978C10.5803 11.2767 10.5103 11.6127 10.4823 11.986L9.41828 11.832C9.41828 11.384 9.52561 10.9453 9.74028 10.516C9.96428 10.0773 10.2769 9.69933 10.6783 9.382C11.2476 8.91533 11.9616 8.682 12.8203 8.682C13.7536 8.682 14.5469 8.98533 15.2003 9.592C15.8256 10.1987 16.1383 10.8987 16.1383 11.692C16.1383 12.364 15.9609 12.9427 15.6063 13.428C15.2423 13.9227 14.7056 14.3893 13.9963 14.828L12.3863 15.836C11.2569 16.536 10.6736 17.264 10.6363 18.02H16.2223V19Z" fill="black"/>
<defs>
<clipPath id="clip0_144_567">
<rect width="25" height="25" fill="white" transform="translate(0.304199)"/>
</clipPath>
</defs>
</svg>
