<svg width="31" height="22" viewBox="0 0 31 22" fill="none" xmlns="http://www.w3.org/2000/svg">
<rect width="31" height="22" rx="2" fill="#FFD600"/>
<path d="M21.8248 1.05005V1.30005H21.7748V1.36255H21.7248V1.41255H21.6748V1.46255H21.5748V1.51255H21.5248V1.56255C21.5168 1.5638 21.5088 1.56517 21.5006 1.56642C21.4921 1.5693 21.4836 1.57217 21.4748 1.57505L21.4623 1.61255H21.4123V1.66255L21.3123 1.67505V1.71255C21.2937 1.71867 21.2937 1.71867 21.2748 1.72505L21.2623 1.76255L21.1623 1.77505V1.82505H21.0998V1.87505H20.9998V1.92505H20.9498V1.97505H20.8498V2.02505L20.7498 2.03755V2.07505C20.7418 2.0763 20.7338 2.07767 20.7256 2.07892C20.7171 2.0818 20.7086 2.08467 20.6998 2.08755L20.6873 2.12505L20.5873 2.13755V2.18755H20.4873V2.23755H20.3873V2.28755H20.3248V2.33755H20.2248V2.38755H20.1248V2.43755C20.096 2.44167 20.0671 2.4458 20.0373 2.45005L20.0248 2.48755L19.9248 2.50005V2.53755L19.8623 2.55005V2.58755C19.8487 2.59092 19.835 2.5943 19.821 2.59767C19.776 2.6083 19.776 2.6083 19.7546 2.6328C19.7373 2.65005 19.7373 2.65005 19.7037 2.65242C19.6942 2.65167 19.6847 2.6508 19.6748 2.65005V2.70005H19.5748V2.75005H19.4748V2.80005H19.3748V2.85005H19.3123V2.90005H19.2123V2.95005H19.1123V3.00005C19.0752 3.00417 19.0381 3.0083 18.9998 3.01255V3.06255H18.8998V3.11255H18.7998V3.16255H18.6998V3.21255H18.5998V3.26255H18.5373V3.31255L18.3998 3.32505V3.36255H18.3373V3.41255L18.2373 3.42505V3.46255C18.2002 3.46667 18.1631 3.4708 18.1248 3.47505V3.52505H18.0248V3.57505H17.9248V3.62505L17.8248 3.63755V3.67505L17.7248 3.68755V3.72505H17.6623V3.77505H17.5623V3.82505L17.4623 3.83755V3.87505C17.4552 3.87642 17.4482 3.8778 17.441 3.87917C17.4317 3.88117 17.4226 3.88317 17.4131 3.88517C17.404 3.88705 17.3948 3.88892 17.3855 3.89092C17.3778 3.89392 17.3702 3.89692 17.3623 3.90005L17.3498 3.93755C17.321 3.94167 17.2921 3.9458 17.2623 3.95005L17.2498 3.98755C17.221 3.99167 17.1921 3.9958 17.1623 4.00005L17.1498 4.03755H17.0623V4.08755C17.0543 4.0888 17.0463 4.09017 17.0381 4.09142C17.0296 4.0943 17.0211 4.09717 17.0123 4.10005L16.9998 4.13755C16.971 4.14167 16.9421 4.1458 16.9123 4.15005L16.8998 4.18755C16.871 4.19167 16.8421 4.1958 16.8123 4.20005L16.7998 4.23755L16.6998 4.25005V4.28755L16.5998 4.30005V4.35005H16.4998V4.40005H16.3998V4.45005L16.2998 4.46255L16.2873 4.50005H16.2373V4.55005H16.1373V4.66255H16.1748L16.1873 4.76255H16.2373V4.86255H16.2873V4.96255H16.3373V5.06255H16.3873L16.3998 5.21255H16.4373V5.37505C16.3912 5.38655 16.3563 5.3888 16.3098 5.3883C16.2963 5.38817 16.2828 5.38805 16.269 5.38805C16.2587 5.3878 16.2485 5.38767 16.238 5.38755L16.2255 5.33755L16.1755 5.32505V5.28755L16.1255 5.27505V5.17505H16.0755L16.063 5.07505H16.0255C16.0236 5.06305 16.0236 5.06305 16.0216 5.0508C16.0187 5.0423 16.0158 5.0338 16.013 5.02505C16.0006 5.02092 15.9882 5.0168 15.9755 5.01255L15.963 4.91255H15.913V4.86255H15.863V4.76255H15.813V4.71255H15.763V4.75005H15.7255V4.91255H15.763C15.7768 4.96805 15.777 5.02217 15.7762 5.0788C15.7762 5.08805 15.7761 5.0973 15.7761 5.10692C15.776 5.12955 15.7757 5.1523 15.7755 5.17492H15.8255V5.58742H15.8755L15.888 6.03742H15.9255V6.09992C15.9131 6.10405 15.9007 6.10817 15.888 6.11242V6.14992H15.9255L15.938 6.39992H15.9755V6.46242H16.0255V6.51242H16.0755V6.56242H16.1255L16.138 6.66242H16.188V6.71242H16.238V6.77492H16.288V6.82492H16.338V6.87492H16.388V6.97492H16.438V7.02492H16.488C16.4898 7.03692 16.4898 7.03692 16.4918 7.04917C16.4947 7.05767 16.4976 7.06617 16.5005 7.07492C16.5128 7.07905 16.5252 7.08317 16.538 7.08742L16.5505 7.17492L16.6005 7.18742V7.23742H16.6505V7.28742H16.7005V7.33742H16.7505V7.38742L16.8005 7.39992V7.44992L16.8505 7.46242V7.49992L16.9005 7.51242V7.54992L16.9505 7.56242V7.59992H17.0005L17.013 7.63742C17.038 7.65255 17.038 7.65255 17.063 7.66242V7.68742L17.263 7.69992V7.64992H17.313V7.58742H17.3505V7.51242H17.313V7.44992H17.263V7.39992H17.213V7.34992L17.1505 7.33742V7.29992H17.1005V7.24992H17.0505V7.19992L17.0005 7.18742V7.13742H16.9505V7.08742H16.9005V7.03742L16.8505 7.02492L16.838 6.93742H16.8005V6.87492C16.7925 6.87367 16.7845 6.8723 16.7762 6.87105C16.7677 6.86817 16.7592 6.8653 16.7505 6.86242C16.7367 6.8213 16.7367 6.79067 16.7372 6.74755C16.7373 6.73405 16.7375 6.72042 16.7375 6.70642C16.7377 6.6908 16.7377 6.6908 16.738 6.67492L16.688 6.66242V6.31242H16.738L16.7505 6.24992H16.788L16.8005 6.19992H16.9505V6.16242C16.993 6.14955 17.0318 6.14842 17.0755 6.14855H17.1217C17.1463 6.14855 17.1463 6.14855 17.1715 6.14867C17.1886 6.14867 17.2056 6.1488 17.2226 6.1488C17.2673 6.1488 17.312 6.14892 17.3563 6.14905C17.4021 6.14917 17.4477 6.1493 17.4938 6.1493C17.5833 6.14942 17.6726 6.14967 17.7626 6.14992L17.7751 6.06242H17.7251L17.7126 5.96242L17.6626 5.94992V5.91242C17.6378 5.9083 17.6131 5.90417 17.5876 5.89992L17.5751 5.84992H17.5126V5.79992H17.4626V5.74992H17.4126V5.69992H17.3626C17.3607 5.68792 17.3607 5.68792 17.3587 5.67567C17.3558 5.66717 17.353 5.65867 17.3501 5.64992C17.3377 5.6458 17.3253 5.64167 17.3126 5.63742L17.3001 5.53742H17.2626V5.48742C17.275 5.4833 17.2873 5.47917 17.3001 5.47492C17.3092 5.44967 17.3092 5.44967 17.3126 5.42492H17.3626V5.37492H17.4501L17.4626 5.32492H17.5751V5.28742C17.6162 5.27367 17.6468 5.27367 17.69 5.27417C17.7035 5.2743 17.7171 5.27442 17.7311 5.27442C17.7467 5.27467 17.7467 5.27467 17.7626 5.27492V5.22492H18.4376V5.27492C18.4488 5.2748 18.4602 5.27467 18.4718 5.27442C18.494 5.2743 18.494 5.2743 18.5165 5.27417C18.5311 5.27405 18.5458 5.2738 18.5608 5.27367C18.6001 5.27492 18.6001 5.27492 18.6376 5.28742V5.32492H18.7001V5.37492L18.8001 5.38742L18.8126 5.42492C18.825 5.42905 18.8373 5.43317 18.8501 5.43742V5.47492L18.9501 5.48742V5.53742H19.0001L19.0126 5.63742H19.0626V5.68742H19.1126V5.73742L19.1626 5.74992V5.84992H19.2126V5.94992H19.2626V6.09992H19.3126V6.56242L19.2626 6.57492V6.71242L19.2126 6.72492V6.81242L19.1626 6.82492V6.92492L19.1126 6.93742L19.1001 6.98742H19.0626L19.0501 7.03742H19.0126C19.0107 7.04942 19.0107 7.04942 19.0087 7.06167C19.0058 7.07017 19.003 7.07867 19.0001 7.08742C18.9877 7.09155 18.9753 7.09567 18.9626 7.09992C18.9475 7.12492 18.9475 7.12492 18.9376 7.14992H18.9126L18.8876 7.19992H18.8501L18.8376 7.24992H18.8001L18.7876 7.29992H18.7501L18.7376 7.34992H18.6501L18.6376 7.39992H18.5876L18.5751 7.44992H18.5376L18.5251 7.49992H18.4876L18.5001 7.63742C18.5125 7.64155 18.5248 7.64567 18.5376 7.64992L18.5501 8.06242H18.5876L18.6001 8.37493H18.6376C18.6531 8.45817 18.6512 8.53993 18.6501 8.62493H18.6876C18.6988 8.6633 18.7016 8.6973 18.7013 8.73717C18.7012 8.74892 18.7012 8.76055 18.7012 8.77268C18.7011 8.78468 18.701 8.7968 18.7008 8.8093C18.7008 8.82155 18.7007 8.83392 18.7007 8.84655C18.7006 8.8768 18.7003 8.90718 18.7001 8.93743H18.7501V9.08743H18.8001V9.13743H18.8501V9.18742L18.9501 9.19993L18.9626 9.23742C18.9878 9.24655 18.9878 9.24655 19.0126 9.24992V9.28743L19.1126 9.29992V9.34993H19.2126V9.39993H19.3001L19.3126 9.44993L19.3751 9.46243V9.49992H19.4626L19.4751 9.54992L19.5251 9.56242V9.59993C19.554 9.60405 19.5828 9.60818 19.6126 9.61242L19.6251 9.66243L19.6751 9.67492V10.0124L19.6251 10.0249L19.6126 10.0874H19.5751V10.2124L19.5251 10.2249L19.5126 10.2874H19.4751C19.4758 10.3072 19.4758 10.3072 19.4766 10.3273C19.4752 10.3717 19.4692 10.3981 19.4501 10.4374H19.4251L19.4126 10.5249L19.3626 10.5374V10.6249L19.3126 10.6374L19.3001 10.6999H19.2751L19.2626 10.7874L19.2126 10.7999V10.8999H19.1626V10.9999L19.1126 11.0124C19.1133 11.0326 19.1133 11.0326 19.1141 11.0531C19.1127 11.0957 19.11 11.1151 19.0876 11.1499H19.0626L19.0501 11.2624H19.0126L19.0001 11.3624C18.9877 11.3666 18.9753 11.3707 18.9626 11.3749L18.9501 11.4624C18.9377 11.4666 18.9253 11.4707 18.9126 11.4749L18.9001 11.5749H18.8501V11.6749H18.8001V11.7749H18.7501V11.8749H18.7001L18.6876 11.9874H18.6501L18.6376 12.0874H18.6001L18.5876 12.1499H18.5501L18.5376 12.2874H18.4876V12.3874C18.4752 12.3916 18.4628 12.3957 18.4501 12.3999L18.4376 12.4999H18.3876V12.5999H18.3376V12.7124H18.2876V12.8124H18.2376C18.238 12.8357 18.238 12.8357 18.2383 12.8593C18.2385 12.8957 18.2367 12.9276 18.2251 12.9624H18.1876L18.1751 13.0624H18.1251V13.1249H18.0876L18.0751 13.2124C18.0627 13.2166 18.0503 13.2207 18.0376 13.2249C18.0285 13.2502 18.0285 13.2502 18.0251 13.2749H17.9751V13.3249H17.9251V13.3749H17.8751V13.4249H17.8251V13.4749H17.7751V13.5249C17.7631 13.5268 17.7631 13.5268 17.7508 13.5288C17.7423 13.5317 17.7338 13.5346 17.7251 13.5374L17.7126 13.5749C17.7002 13.5791 17.6878 13.5832 17.6751 13.5874L17.6626 13.6249C17.6337 13.6291 17.6048 13.6332 17.5751 13.6374L17.5626 13.6874H17.5126V13.7374H17.4501V13.7874H17.3626V13.8374L17.2626 13.8499V13.8874H17.2001V13.9374H17.1001V13.9874L16.9626 13.9999L16.9501 14.0374L16.8501 14.0499L16.8376 14.0874C16.794 14.1059 16.7467 14.1008 16.7001 14.0999V14.1499H16.5501V14.1999H16.3876V14.2499L16.2376 14.2624V14.2999L16.0876 14.3124V14.3499L15.8876 14.3624L15.8751 14.3999L15.7126 14.4124V14.4499C15.6837 14.4541 15.6548 14.4582 15.6251 14.4624V14.5499H15.6626V14.5999L15.7126 14.6124L15.7251 14.6999L15.7751 14.7124V14.7499L15.8251 14.7624V14.8124H15.8751V14.8624L15.9251 14.8749V14.9124L15.9751 14.9249V14.9624H16.1251L16.1376 14.9124H16.1751V14.8249L16.2251 14.8124L16.2376 14.7499H16.2751L16.2876 14.6749L16.3376 14.6624L16.3501 14.5999H16.4376L16.4501 14.5499C16.4625 14.5541 16.4748 14.5582 16.4876 14.5624V14.5999L16.5501 14.6124V14.6499C16.5625 14.6541 16.5748 14.6582 16.5876 14.6624C16.6016 14.6986 16.6016 14.7336 16.6013 14.7721C16.6012 14.7832 16.6012 14.7942 16.6012 14.8057C16.6011 14.8172 16.601 14.8287 16.6008 14.8406C16.6008 14.8523 16.6007 14.8639 16.6007 14.8761C16.6006 14.9048 16.6003 14.9337 16.6001 14.9624L16.6501 14.9749V15.0624L16.7001 15.0749V15.1249L16.7501 15.1374V15.1749L16.8001 15.1874V15.2249L16.8501 15.2374V15.2749L16.9001 15.2874V15.3249L16.9626 15.3374V15.3749L17.0126 15.3874V15.4249L17.0626 15.4374V15.4749L17.1126 15.4874V15.5249H17.1501V15.5749L17.2126 15.5874V15.6249L17.3126 15.6374V15.6749H17.3501L17.3626 14.8624C17.375 14.8583 17.3873 14.8542 17.4001 14.8499L17.4126 14.5499H17.4626V14.3999H17.5126V14.3374H17.5626V14.2374H17.6126V14.1874H17.6626V14.1374H17.7126L17.7251 14.0374C17.754 14.0333 17.7828 14.0292 17.8126 14.0249L17.8251 13.9374L17.9251 13.9249V13.8749H17.9751V13.8249H18.0251V13.7749H18.0751V13.7249H18.1376V13.6749H18.1876V13.6249H18.2251L18.2376 13.5749H18.2751L18.2876 13.5249H18.3251L18.3376 13.4624H18.3751L18.3876 13.4124H18.4251L18.4376 13.3249C18.45 13.3208 18.4623 13.3167 18.4751 13.3124L18.4876 13.2249L18.5376 13.2124V13.1249L18.5876 13.1124V13.0124C18.6 13.0083 18.6123 13.0042 18.6251 12.9999L18.6376 12.8124L18.6876 12.7999V12.5999L18.7376 12.5874V12.4499C18.7971 12.4253 18.8371 12.4248 18.9001 12.4374V12.4874H18.9501V12.5374L19.0001 12.5499C19.0016 12.5708 19.0016 12.5708 19.0032 12.5922C19.0073 12.6382 19.0073 12.6382 19.0383 12.6554C19.0463 12.6577 19.0543 12.6601 19.0626 12.6624V12.6999C19.075 12.7041 19.0873 12.7082 19.1001 12.7124L19.1126 12.7999L19.1626 12.8124V12.8999L19.2126 12.9124V12.9499L19.2626 12.9624V13.0499L19.3126 13.0624L19.3251 13.1499C19.3375 13.1541 19.3498 13.1582 19.3626 13.1624L19.3751 13.2499C19.3875 13.2541 19.3998 13.2582 19.4126 13.2624L19.4251 13.3624L19.4751 13.3749V13.4624L19.5251 13.4749V13.5749L19.5751 13.5874V13.8749L19.6251 13.8874C19.6255 13.9829 19.6256 14.0787 19.6257 14.1737C19.6258 14.2062 19.626 14.2386 19.6261 14.2711C19.6262 14.3177 19.6262 14.3643 19.6263 14.4111C19.6263 14.4257 19.6265 14.4403 19.6265 14.4553V14.4962C19.6266 14.5141 19.6266 14.5141 19.6266 14.5323C19.6251 14.5624 19.6251 14.5624 19.6126 14.5999H19.5751C19.5755 14.6221 19.5755 14.6221 19.576 14.6447C19.5762 14.6642 19.5765 14.6836 19.5766 14.7031C19.5768 14.7128 19.5771 14.7224 19.5773 14.7326C19.5781 14.8214 19.5781 14.8214 19.5501 14.8626H19.5251V15.0001L19.4751 15.0251V15.1126C19.4631 15.1157 19.4631 15.1157 19.4508 15.1188C19.4231 15.1348 19.4231 15.1348 19.419 15.1614C19.416 15.1868 19.4142 15.2122 19.4126 15.2376H19.3751L19.3626 15.3376H19.3251L19.3126 15.4376H19.2626V15.5376H19.2126V15.6376H19.1626V15.7376H19.1126L19.1001 15.8001H19.0626L19.0501 15.9001H19.0001V15.9501H18.9501V16.0001H18.9126L18.9001 16.0626H18.8626L18.8501 16.1501H18.8001V16.2126H18.7501V16.2626H18.7001V16.3126H18.6501L18.6376 16.4126H18.6001V16.7751H18.6376C18.65 16.8674 18.6516 16.9576 18.6508 17.0513C18.6508 17.0729 18.6508 17.0729 18.6507 17.0949C18.6506 17.1302 18.6503 17.1653 18.6501 17.2006H18.6876C18.7008 17.2757 18.7016 17.3481 18.7008 17.4243C18.7008 17.4364 18.7007 17.4486 18.7007 17.4611C18.7006 17.4907 18.7003 17.5204 18.7001 17.5501H18.7501V17.9126H18.8001L18.8126 18.2126C18.825 18.2167 18.8373 18.2208 18.8501 18.2251V18.4751H18.9001V18.6751H18.8501V18.7376H18.8001V18.7876H18.7501V18.8376H18.7001V18.8876H18.6501V18.9376H18.6001V18.9876H18.5376V19.0376H18.4876V19.0876C18.4587 19.0917 18.4298 19.0958 18.4001 19.1001L18.3876 19.1501H18.3376V19.2001H18.2876V19.2501H18.2251V19.3001H18.1376V19.3501C18.1296 19.3513 18.1216 19.3527 18.1133 19.3539C18.1048 19.3568 18.0963 19.3597 18.0876 19.3626L18.0751 19.4001H18.0251V19.4501H17.9751V19.5001H17.9251V19.5501L17.8251 19.5626V19.6126H17.7751V19.6626H17.7251L17.7126 19.7126H17.6626V19.7626H17.6126V19.8126H17.5126V19.8626H17.4626V19.9126H17.4126V19.9626L17.3126 19.9751L17.3001 20.0251H17.2626L17.2501 20.0751H17.2001V20.1251H17.1501V20.1751H17.1126L17.1001 20.2751H17.0626L17.0501 20.3376H17.0126V20.4251L16.9626 20.4376C16.963 20.4608 16.963 20.4608 16.9633 20.4844C16.9635 20.5208 16.9617 20.5527 16.9501 20.5876H16.9126L16.9001 20.6876H16.8626L16.8501 20.7501H16.8001V20.7876H16.6876V20.7376H16.5876V20.7001C16.5505 20.6959 16.5133 20.6918 16.4751 20.6876V20.6376H16.2751V20.5876H16.1251V20.5376H16.0251V20.4876C16.0176 20.4877 16.01 20.4878 16.0022 20.4881C15.9872 20.4882 15.9872 20.4882 15.972 20.4883C15.9621 20.4884 15.9522 20.4887 15.9421 20.4888C15.9137 20.4876 15.8897 20.4829 15.8626 20.4751V20.4376L15.7626 20.4251V20.3376H15.8126V20.2751H15.8626V20.2251H15.9126V20.1751H15.9751V20.1251H16.0251V20.0751H16.1126V20.0251H16.1751V19.9751H16.2251V19.9251H16.2751L16.2876 19.8626H16.3251L16.3376 19.8126H16.3751L16.3876 19.7626H16.4376V19.7126H16.4876V19.6626H16.5376V19.6126H16.5876V19.5626H16.6376V19.5126H16.6876V19.4626H16.7376L16.7501 19.4001H16.7876L16.8001 19.3501H16.8501V19.3001H16.9001V19.2501H16.9501V19.2001H17.0001V19.1501H17.0501V19.1001H17.1001V19.0501H17.1501L17.1626 18.9876H17.2001L17.2126 18.9376H17.2626V18.8876H17.3126V18.8376H17.3626V18.7876H17.4126V18.7376H17.4626V18.6876H17.5126V18.6376C17.5206 18.6363 17.5286 18.6349 17.5368 18.6337C17.5453 18.6308 17.5538 18.6279 17.5626 18.6251L17.5751 18.5876C17.5875 18.5834 17.5998 18.5793 17.6126 18.5751C17.6217 18.5498 17.6217 18.5498 17.6251 18.5251H17.6751V18.4751H17.7251V18.4251H17.6751C17.6732 18.4131 17.6732 18.4131 17.6712 18.4008C17.6683 18.3923 17.6655 18.3838 17.6626 18.3751C17.6502 18.3709 17.6378 18.3668 17.6251 18.3626L17.6126 18.3251C17.5873 18.3159 17.5873 18.3159 17.5626 18.3126V18.2626H17.5126V18.2126H17.4626V18.1626H17.4126V18.1126H17.3626V18.0626H17.3126V17.9626H17.2626V17.9126L17.2001 17.9001V17.8501H17.1501V17.8001H17.1001V17.7001H17.0501V17.6501H17.0001V17.5501H16.9501L16.9376 17.4501H16.9001V17.3876H16.8501V17.2876H16.8001L16.7876 17.1876H16.7501C16.7335 17.1378 16.7367 17.0894 16.7376 17.0376H16.6876V16.9251H16.6376V16.7751H16.5876V16.6751H16.5376L16.5251 16.5251C16.5127 16.5209 16.5003 16.5168 16.4876 16.5126L16.4751 16.3626H16.4376V16.2626H16.3876L16.3751 16.1626L16.3251 16.1501V16.1126L16.2251 16.1001V16.0501H16.1751V16.0001H16.1126V15.9626C16.0837 15.9584 16.0548 15.9543 16.0251 15.9501V15.9001H15.9626V15.8501H15.8751L15.8626 15.8001L15.8126 15.7876V15.7501L15.7626 15.7376V15.7001C15.7337 15.6959 15.7048 15.6918 15.6751 15.6876L15.6626 15.6376L15.6001 15.6251V15.5876H15.5126V15.5376H15.4626V15.4876H15.3626V15.4376H15.3126V15.3876L15.2126 15.3751L15.2001 15.3376C15.1748 15.3284 15.1748 15.3284 15.1501 15.3251V15.2876C15.1212 15.2834 15.0923 15.2793 15.0626 15.2751L15.0501 15.2376C15.0248 15.2284 15.0248 15.2284 15.0001 15.2251V15.1751H14.9001V15.1251H14.8001V15.0751H14.7376V15.0251H14.6376V14.9751L14.5376 14.9626L14.5251 14.9251C14.5127 14.9209 14.5003 14.9168 14.4876 14.9126V14.8751L14.3876 14.8626L14.3751 14.8251C14.3498 14.8159 14.3498 14.8159 14.3251 14.8126V14.7751L14.2251 14.7626V14.7126H14.1251V14.6626H14.0751V14.6126H13.9751V14.5626H13.8751V14.5126L13.7751 14.5001L13.7626 14.4626C13.7373 14.4534 13.7373 14.4534 13.7126 14.4501V14.4126L13.6126 14.4001L13.6001 14.3626L13.5001 14.3501V14.3001H13.4001V14.2501H13.3001V14.2001H13.2001V14.1501H13.1001L13.0876 14.1001C13.074 14.1003 13.0602 14.1006 13.0462 14.1008C13.0001 14.1001 13.0001 14.1001 12.9626 14.0876V14.0501C12.9255 14.0459 12.8883 14.0418 12.8501 14.0376V14.0001L12.7501 13.9876L12.7376 13.9501L12.5876 13.9376V13.9001H12.5376V13.9376H12.4376V13.9876C12.4296 13.9888 12.4216 13.9902 12.4133 13.9914C12.4048 13.9943 12.3963 13.9972 12.3876 14.0001L12.3751 14.0376C12.3627 14.0417 12.3503 14.0458 12.3376 14.0501L12.3251 14.0876C12.3127 14.0917 12.3003 14.0958 12.2876 14.1001C12.2785 14.1253 12.2785 14.1253 12.2751 14.1501H12.1751V14.2001H12.1251V14.2501H12.0751V14.3001H12.0251V14.3501H11.9751V14.4001C11.9671 14.4013 11.9591 14.4027 11.9508 14.4039C11.9423 14.4068 11.9338 14.4097 11.9251 14.4126L11.9126 14.4501C11.9002 14.4542 11.8878 14.4583 11.8751 14.4626L11.8626 14.5001C11.8502 14.5042 11.8378 14.5083 11.8251 14.5126C11.816 14.5378 11.816 14.5378 11.8126 14.5626H11.7376L11.7251 14.6126H11.6751L11.6626 14.6626H11.6251L11.6126 14.7126H11.5751L11.5626 14.7626H11.5251C11.5238 14.7706 11.5225 14.7786 11.5212 14.7868C11.517 14.7996 11.517 14.7996 11.5126 14.8126C11.5002 14.8167 11.4878 14.8208 11.4751 14.8251L11.4626 14.8626C11.4502 14.8667 11.4378 14.8708 11.4251 14.8751C11.416 14.9003 11.416 14.9003 11.4126 14.9251H11.3626V14.9751H11.3126V15.0251H11.2626V15.0751H11.2126V15.1251C11.2046 15.1263 11.1966 15.1277 11.1883 15.1289C11.1798 15.1318 11.1713 15.1347 11.1626 15.1376L11.1501 15.1751H11.1001V15.2251H11.0501V15.2751C11.0212 15.2792 10.9923 15.2833 10.9626 15.2876L10.9501 15.3376H10.9001V15.3876H10.8501V15.4376H10.8001V15.4876H10.7501V15.5376H10.7001V15.5876H10.6501V15.6376L10.6001 15.6501L10.5876 15.7001H10.5376V15.7501H10.4876V15.8001H10.4376V15.8501H10.3876V15.9001H10.3376V15.9501H10.2876L10.2751 16.0126H10.2376L10.2251 16.0626H10.1876L10.1751 16.1126H10.1376L10.1251 16.2001H10.0751V16.2626H10.0251V16.3126H9.97509V16.3626H9.92509V16.4126H9.87509V16.4626H9.82509L9.81259 16.5626H9.76259V16.6126C9.75021 16.6167 9.73784 16.6208 9.72509 16.6251C9.71596 16.6503 9.71596 16.6503 9.71259 16.6751H9.66259V16.7251H9.61259V16.8251H9.56259V16.8751H9.51259V16.9251H9.46259L9.45009 16.9876H9.41259L9.40009 17.0751C9.38771 17.0792 9.37534 17.0833 9.36259 17.0876C9.35346 17.1128 9.35346 17.1128 9.35009 17.1376H9.30009V17.1876H9.25009V17.2501H9.21259C9.20634 17.2933 9.20634 17.2933 9.20009 17.3376H9.16259C9.16134 17.3456 9.15996 17.3535 9.15871 17.3618C9.15584 17.3703 9.15296 17.3788 9.15009 17.3876C9.13771 17.3917 9.12534 17.3958 9.11259 17.4001C9.10634 17.4433 9.10634 17.4433 9.10009 17.4876C9.08771 17.4917 9.07534 17.4958 9.06259 17.5001C9.05634 17.5433 9.05634 17.5433 9.05009 17.5876L9.00009 17.6001V17.7001H8.95009V17.8001H8.90009V17.8626C8.81146 17.8638 8.72509 17.8638 8.63759 17.8501V17.8001H8.53759V17.7501H8.42509V17.7001H8.27509V17.6501H8.17509V17.6001H8.06259V17.5501H7.91259V17.5001C7.89846 17.5003 7.88421 17.5006 7.86958 17.5008C7.82508 17.5001 7.82509 17.5001 7.81259 17.4876C7.81171 17.4644 7.81158 17.4412 7.81183 17.4181C7.81196 17.4054 7.81208 17.3927 7.81208 17.3797C7.81233 17.3699 7.81246 17.3602 7.81259 17.3501H7.86259V17.3001L7.96259 17.2876V17.2376H8.01259V17.1876H8.07509V17.1376H8.12509V17.0876L8.22509 17.0751L8.23759 17.0251H8.27509L8.28759 16.9751H8.32509V16.9251H8.37509V16.8751H8.42509V16.8251H8.47509V16.7751L8.52509 16.7626C8.53121 16.7193 8.53121 16.7193 8.53759 16.6751H8.58759L8.60009 16.6126H8.63759L8.65009 16.5626H8.68759L8.70009 16.5001H8.73759V16.4251L8.78759 16.4126L8.80009 16.3501H8.83759L8.85009 16.3001H8.88759L8.90009 16.2501H8.93759L8.95009 16.2001H8.98759C8.99371 16.1568 8.99371 16.1568 9.00009 16.1126L9.05009 16.1001L9.06259 16.0501H9.10009L9.11259 15.9876H9.15009L9.16259 15.9376H9.20009V15.8876H9.25009V15.8001L9.31259 15.7876V15.7376H9.36259L9.37509 15.6751H9.40009L9.41259 15.6251H9.45009L9.46259 15.5376L9.51259 15.5251V15.4751H9.56259V15.4251H9.61259L9.62509 15.3251C9.63746 15.3209 9.64984 15.3168 9.66259 15.3126L9.67509 15.2751H9.71259V15.2251L9.76259 15.2126L9.77509 15.1626H9.82509V15.0751C9.83746 15.0709 9.84984 15.0668 9.86259 15.0626C9.87171 15.0373 9.87171 15.0373 9.87509 15.0126H9.92509V14.9626H9.97509V14.9126H10.0251V14.8126H10.0751L10.0876 14.7501H10.1251L10.1376 14.7001H10.1751L10.1876 14.6001H10.2376V14.5501H10.2751L10.2876 14.5001H10.3251L10.3376 14.4001H10.3751L10.3876 14.3501H10.4251L10.4376 14.2876H10.4751L10.4876 14.2001C10.5 14.1959 10.5123 14.1918 10.5251 14.1876C10.5342 14.1623 10.5342 14.1623 10.5376 14.1376H10.5876L10.6001 14.0751H10.6251C10.6375 14.0318 10.6375 14.0318 10.6501 13.9876H10.6876L10.7001 13.9251H10.7376L10.7501 13.8751H10.7876V13.7876L10.8376 13.7751L10.8501 13.7251H10.8876L10.9001 13.6751H10.9376L10.9501 13.5876L11.0001 13.5751L11.0126 13.5126H11.0501L11.0626 13.4626H11.0876L11.1001 13.3751L11.1501 13.3626V13.3126H11.2001L11.2126 13.2501H11.2501V13.1251L11.3001 13.1126V12.9626H11.2501V12.9126H11.2001V12.8126H11.1501V12.7501H11.1001V12.7001H11.0501V12.6501H10.9876V12.6001H10.9001L10.8876 12.5626L10.7376 12.5501V12.5001H10.5001L10.4876 12.4501H10.2876V12.4001C10.277 12.4002 10.2665 12.4003 10.2556 12.4006C10.1773 12.4011 10.1018 12.3997 10.0256 12.3876V12.3501L9.76309 12.3376V12.3001L9.61309 12.2876V12.2376C9.51409 12.2417 9.41559 12.2458 9.31309 12.2501V12.2876L9.26309 12.3001L9.25059 12.3501H9.21309L9.20059 12.4001H9.16309L9.15059 12.4501H9.11309L9.10059 12.5001H9.06309L9.05059 12.5501H9.00059L8.98809 12.6001H8.95059L8.93809 12.6501H8.90059L8.88809 12.7001H8.85059V12.7501H8.80059V12.8001H8.75059C8.74446 12.8309 8.74446 12.8309 8.73809 12.8626H8.70059L8.68809 12.9126H8.63809V12.9626H8.58809V13.0126C8.55921 13.0167 8.53034 13.0208 8.50059 13.0251L8.48809 13.0626H8.43809V13.1251H8.38809V13.2126L8.43809 13.2251V13.2626L8.48809 13.2751V13.3126L8.53809 13.3251V13.3626L8.58809 13.3751V13.4126C8.59609 13.4138 8.60409 13.4152 8.61234 13.4164C8.62084 13.4193 8.62934 13.4222 8.63809 13.4251C8.64421 13.4437 8.64421 13.4437 8.65059 13.4626C8.67559 13.4777 8.67559 13.4777 8.70059 13.4876V13.5251L8.75059 13.5376V13.6876H8.70059V13.7376H8.65059V13.7876H8.58809V13.8376H8.48809V13.8876H8.43809V13.9376H8.33809V13.9876L8.23809 14.0001V14.0376C8.20096 14.0417 8.16384 14.0458 8.12559 14.0501V14.0876C8.08284 14.1018 8.04946 14.1013 8.00446 14.1008C7.98971 14.1007 7.97496 14.1006 7.95984 14.1006C7.94846 14.1003 7.93721 14.1002 7.92559 14.1001L7.91309 14.0376L7.86309 14.0251V13.8876L7.81309 13.8751L7.80059 13.6376C7.78821 13.6334 7.77584 13.6293 7.76309 13.6251L7.75059 13.4251C7.73821 13.4209 7.72584 13.4168 7.71309 13.4126C7.70696 13.2701 7.70696 13.2701 7.70059 13.1251H7.67559C7.66946 13.0693 7.66946 13.0693 7.66309 13.0126L7.71309 13.0001V12.9126L7.76309 12.9001V12.8126L7.81309 12.8001C7.81921 12.7692 7.81921 12.7692 7.82559 12.7376H7.85059L7.87559 12.6501H7.91309C7.91921 12.6192 7.91921 12.6192 7.92559 12.5876H7.96309L7.97559 12.5376H8.01309L8.02559 12.4876H8.06309L8.07559 12.4001L8.12559 12.3876L8.13809 12.3376H8.17559L8.18809 12.2876H8.22559C8.23171 12.2567 8.23171 12.2567 8.23809 12.2251H8.26309L8.27559 12.1376L8.32559 12.1251V12.0751H8.37559V12.0251H8.42559L8.43809 11.9376L8.48809 11.9251V11.8751H8.53809V11.8251C8.55046 11.8209 8.56284 11.8168 8.57559 11.8126C8.58471 11.7873 8.58471 11.7873 8.58809 11.7626H8.63809V11.7126H8.67559L8.68809 11.6126H8.73809V11.5626H8.78809V11.5126H8.83809V11.4626H8.88809C8.89421 11.4317 8.89421 11.4317 8.90059 11.4001H8.93809L8.95059 11.3501H8.98809L9.00059 11.3001H9.05059V11.2501H9.10059V11.2001H9.46309V11.2501C9.47134 11.2501 9.47946 11.2501 9.48796 11.2499C9.57309 11.2497 9.65796 11.2496 9.74296 11.2494C9.77484 11.2493 9.80659 11.2492 9.83834 11.2491C9.88409 11.2489 9.92971 11.2489 9.97584 11.2488C9.98996 11.2488 10.0042 11.2487 10.019 11.2487H10.0591C10.0707 11.2486 10.0825 11.2486 10.0945 11.2486C10.1233 11.2499 10.148 11.2544 10.1756 11.2626V11.3001C10.183 11.2999 10.1905 11.2999 10.1981 11.2998C10.2322 11.2996 10.2665 11.2994 10.3006 11.2993C10.3122 11.2992 10.324 11.2991 10.336 11.2989C10.4046 11.2987 10.4697 11.3024 10.5385 11.3126V11.3501H10.6885L10.701 11.3001H10.7385L10.726 10.5876C10.7136 10.5834 10.7012 10.5793 10.6885 10.5751C10.6882 10.5129 10.688 10.4509 10.6878 10.3888L10.6875 10.3254C10.6873 10.2951 10.6873 10.2648 10.6872 10.2344C10.6871 10.2202 10.6871 10.2202 10.6871 10.2057C10.6871 10.1829 10.6877 10.1603 10.6885 10.1376C10.701 10.1251 10.701 10.1251 10.7495 10.1237C10.7711 10.1237 10.7927 10.1237 10.8143 10.1238C10.8257 10.1238 10.837 10.1239 10.8487 10.1239C10.8851 10.1239 10.9216 10.1241 10.958 10.1243C10.9826 10.1243 11.0072 10.1244 11.0318 10.1244C11.0925 10.1246 11.153 10.1248 11.2131 10.1251V10.1625H12.1881V10.1251C12.3036 10.1209 12.4193 10.1168 12.5381 10.1126V10.0751L12.7381 10.0626V10.0251C12.7861 10.0138 12.8303 10.0112 12.8793 10.0118C12.8927 10.0119 12.9061 10.0121 12.9198 10.0121C12.935 10.0123 12.935 10.0123 12.9505 10.0126V9.97505C12.9937 9.96168 13.0335 9.9613 13.078 9.9618C13.0915 9.96193 13.105 9.96205 13.1188 9.96205C13.1291 9.9623 13.1393 9.96243 13.1498 9.96255L13.1623 9.91255H13.2998L13.3123 9.86255H13.4123L13.4248 9.81255H13.4998V9.76255C13.5118 9.76068 13.5118 9.76068 13.5241 9.75868C13.5326 9.7558 13.5411 9.75292 13.5498 9.75005L13.5623 9.71255C13.5747 9.70843 13.5871 9.7043 13.5998 9.70005C13.609 9.6748 13.609 9.6748 13.6123 9.65005H13.6623V9.55005H13.7123V9.36255H13.5748L13.5623 9.40005L13.4623 9.41255V9.45005C13.4126 9.46667 13.3642 9.46343 13.3123 9.46255V9.51255H13.1498V9.56255L12.9498 9.57505V9.61255L12.6998 9.62505V9.66255L12.3873 9.67505V9.71255C11.9986 9.72743 11.9986 9.72743 11.8123 9.72505V9.76255H11.7748V9.72505H11.6748L11.6623 9.76255H11.4498V9.72505C11.4365 9.72517 11.4231 9.7253 11.4092 9.72555C11.2055 9.72692 11.003 9.71968 10.7992 9.71255L10.7867 9.66255L10.7367 9.65005V9.61255L10.6867 9.60005V9.51255L10.6367 9.50005L10.6242 9.36255C10.6118 9.35843 10.5995 9.3543 10.5867 9.35005C10.5725 9.2958 10.5751 9.24518 10.5797 9.19005C10.5803 9.1813 10.581 9.17268 10.5817 9.1638C10.5832 9.14255 10.585 9.12143 10.5867 9.10017L10.6367 9.08768V9.03768H10.6867L10.6992 8.98768H10.7367V8.93768H10.8367V8.88768H10.8867V8.83768L10.9867 8.82518V8.78768C10.9987 8.7858 10.9987 8.7858 11.011 8.7838C11.0195 8.78093 11.028 8.77805 11.0367 8.77518L11.0492 8.73768L11.1492 8.72518V8.67518H11.1992V8.62517H11.2492V8.57518H11.2992V8.52518H11.3492L11.3617 8.46268H11.3992L11.4117 8.41268H11.4492L11.4617 8.31267H11.5117V8.26268H11.5617V8.16267H11.6117V8.06267H11.6617V7.90018H11.7117V7.70017L11.7617 7.68767V7.66267H11.7242L11.7117 7.56267H11.5742L11.5617 7.75017C11.5493 7.7543 11.537 7.75843 11.5242 7.76268L11.5117 7.90018L11.4617 7.91267V8.01268C11.4493 8.0168 11.437 8.02093 11.4242 8.02518L11.4117 8.11268L11.3617 8.12517V8.21268L11.3117 8.22517L11.2992 8.27518H11.2617L11.2492 8.32518H11.2117L11.1992 8.37517H11.1617L11.1492 8.42518H11.1117L11.0992 8.47518H11.0492L11.0367 8.52518H10.9992L10.9867 8.57518C10.9578 8.5793 10.929 8.58343 10.8992 8.58768V8.63768H10.8492L10.8367 8.68767H10.7492V8.73768H10.6492V8.78768L10.5492 8.80018L10.5367 8.83768H10.4367V8.88768L10.3367 8.90018V8.93768C10.2996 8.9418 10.2625 8.94593 10.2242 8.95018V8.98768C10.1882 8.99968 10.1655 9.00155 10.1281 9.00093C10.118 9.0008 10.108 9.00068 10.0975 9.00068C10.086 9.00042 10.086 9.00043 10.0742 9.00018V9.05018H9.97421V9.10017H9.91171V9.15018H9.86171V9.20018C9.83284 9.2043 9.80396 9.20843 9.77421 9.21268L9.76171 9.26268H9.72421L9.71171 9.36268H9.66171V9.45018H9.61171V9.51268H9.56171V9.56268H9.51171V9.61268H9.46171V9.66267L9.36171 9.67518V9.71268H9.09921V9.67518L8.94921 9.66267C8.93896 9.6218 8.93534 9.5943 8.93596 9.5533C8.93609 9.5433 8.93621 9.5333 8.93621 9.52305C8.93646 9.51543 8.93658 9.50793 8.93671 9.50018H8.98671V9.45018H9.04921V9.40018L9.14921 9.38768V9.35017H9.19921V9.30018H9.24921C9.25546 9.2693 9.25546 9.2693 9.26171 9.23768H9.29921L9.31171 9.13768H9.36171V9.03768H9.41171V8.93768H9.46171V8.83768H9.51171V8.77518H9.56171V8.67518H9.61171V8.62517H9.66171L9.67421 8.52518C9.68659 8.52105 9.69896 8.51693 9.71171 8.51268L9.72421 8.47518H9.76171L9.77421 8.41268H9.81171L9.82421 8.36268H9.86171L9.87421 8.31267H9.91171L9.92421 8.21268H10.0242V8.16267H10.0742V8.11268H10.1242V8.06267H10.1742V8.01268C10.1862 8.0108 10.1862 8.0108 10.1985 8.0088C10.207 8.00593 10.2155 8.00305 10.2242 8.00017L10.2367 7.96268C10.2491 7.95855 10.2615 7.95442 10.2742 7.95018L10.2867 7.91267H10.3242L10.3367 7.85017H10.3742L10.3867 7.80018H10.4242V7.71268L10.4742 7.70017L10.4867 7.61268C10.4991 7.60855 10.5115 7.60442 10.5242 7.60017C10.5262 7.59193 10.5283 7.58367 10.5305 7.57517C10.5325 7.56693 10.5346 7.55867 10.5367 7.55018C10.5491 7.54605 10.5615 7.54192 10.5742 7.53767L10.5867 7.35017C10.5991 7.34605 10.6115 7.34193 10.6242 7.33768V6.73767C10.6118 6.73355 10.5995 6.72942 10.5867 6.72517C10.5863 6.71105 10.5861 6.69692 10.5857 6.6823C10.5851 6.6638 10.5843 6.6453 10.5836 6.62667C10.5835 6.61742 10.5832 6.60805 10.5831 6.59842C10.5822 6.56805 10.5822 6.56805 10.5742 6.52517C10.5503 6.50517 10.5503 6.50517 10.5242 6.50017V6.42517L10.4742 6.41267V6.36267L10.4242 6.35017V6.31267L10.3742 6.30017V6.26267H10.2867V6.21267H10.2367L10.2242 6.17517C10.1953 6.17105 10.1665 6.16692 10.1367 6.16267V6.11267H10.0242V6.06267L9.92421 6.05017V6.01267L9.82421 6.00017L9.81171 5.96267C9.78284 5.95855 9.75396 5.95442 9.72421 5.95017L9.71171 5.91267C9.68646 5.90355 9.68646 5.90355 9.66171 5.90017V5.85017H9.56171V5.80017H9.51171V5.75017L9.44921 5.73767V5.70017H9.41171V5.65017L9.36171 5.63767V5.53767L9.31171 5.52517L9.29921 5.37517H9.26171C9.24509 5.32542 9.24834 5.27705 9.24921 5.22517H9.19921V5.02517L9.24921 5.01267V4.96267H9.29921L9.31171 4.91267H9.56171V4.87517C9.61471 4.8603 9.66634 4.86092 9.72046 4.86105H9.75396C9.79034 4.86092 9.82671 4.86092 9.86321 4.86105C9.88846 4.86105 9.91384 4.86105 9.93909 4.86092C9.99209 4.86092 10.0452 4.86092 10.0978 4.86105C10.1658 4.86117 10.2341 4.86105 10.3016 4.86105C10.354 4.86092 10.4062 4.86092 10.4591 4.86105C10.4841 4.86105 10.5092 4.86105 10.5343 4.86092C10.5693 4.86092 10.6043 4.86105 10.6395 4.86105C10.655 4.86105 10.655 4.86105 10.6708 4.86092C10.7156 4.86117 10.7557 4.86305 10.7983 4.87517V4.91267H10.9483L10.9608 4.96267C10.9806 4.9623 10.9806 4.9623 11.0007 4.96192C11.04 4.96255 11.073 4.96605 11.1108 4.97517V5.01267L11.2608 5.02517V5.07517H11.3733V5.11267C11.4022 5.1168 11.4311 5.12092 11.4608 5.12517L11.4733 5.16267L11.5733 5.17517V5.22517H11.6733V5.27517H11.7608L11.7733 5.32517C11.8022 5.3293 11.8311 5.33342 11.8608 5.33767V5.37517L11.9608 5.38767L11.9733 5.42517C11.9986 5.4343 11.9986 5.4343 12.0233 5.43767V5.48767H12.0733V5.52517L12.1733 5.53767V5.58767H12.2233V5.63767H12.2733V5.68767H12.3733V5.73767L12.4358 5.75017V5.80017H12.4858V5.85017H12.5358V5.90017H12.5858V5.95017H12.6358V6.00017H12.6858V6.05017H12.7358V6.10017H12.7983V6.15017H12.8483V6.20017L12.8983 6.21267V6.26267H12.9483V6.31267H12.9983L13.0108 6.40017C13.0232 6.4043 13.0356 6.40842 13.0483 6.41267V6.46267H13.0983V6.51267H13.1483L13.1608 6.61267L13.2108 6.62517V6.66267L13.2608 6.67517V6.76267H13.3108V6.82517H13.3608V6.87517H13.4108V6.97517H13.4608L13.4733 7.07517H13.5108C13.5121 7.08317 13.5135 7.09118 13.5147 7.09942C13.519 7.11217 13.519 7.11217 13.5233 7.12517C13.5357 7.1293 13.5481 7.13342 13.5608 7.13767L13.5733 7.22517C13.5857 7.2293 13.5981 7.23343 13.6108 7.23768L13.6233 7.33768H13.6733V7.43767H13.7233V7.50017H13.7733V7.60017H13.8233V7.75017H13.8733L13.8858 7.85017C13.8982 7.8543 13.9106 7.85843 13.9233 7.86268L13.9358 8.00017H13.9733L13.9858 8.11268H14.0233L14.0358 8.21268C14.0482 8.2168 14.0606 8.22093 14.0733 8.22517C14.0918 8.2688 14.0867 8.31605 14.0858 8.36268L14.1358 8.37517V8.42518C14.1647 8.42105 14.1936 8.41692 14.2233 8.41268C14.223 8.38905 14.223 8.38905 14.2226 8.36505C14.222 8.32968 14.2243 8.30955 14.2358 8.27518H14.2733L14.2858 8.16267H14.3233L14.3358 8.05018H14.3733L14.3858 7.95018H14.4233L14.4358 7.80018H14.4858V7.70017H14.5358V7.60017H14.5858V7.53767H14.6358V7.43767H14.6858V7.38767H14.7358V7.33768H14.7983V7.28767H14.8483V7.32517L14.9983 7.33768V7.38767H15.0983V7.43767L15.1983 7.45017V7.48768L15.2608 7.50017V7.53767L15.4108 7.55018V7.60017H15.5108V7.63767L15.7108 7.65018V7.55018L15.6608 7.53767V7.50017H15.6233V7.45017H15.5733V7.40018H15.5233C15.5215 7.38818 15.5215 7.38818 15.5195 7.37593C15.5166 7.36742 15.5137 7.35892 15.5108 7.35017C15.4985 7.34605 15.4861 7.34193 15.4733 7.33768L15.4608 7.30018C15.4356 7.29105 15.4356 7.29105 15.4108 7.28767V7.23768H15.3608L15.3483 7.15018H15.3108C15.309 7.13818 15.309 7.13818 15.307 7.12593C15.3041 7.11742 15.3012 7.10892 15.2983 7.10017C15.286 7.09605 15.2736 7.09193 15.2608 7.08768V7.03767H15.2108V6.93767H15.1608C15.159 6.92567 15.159 6.92567 15.157 6.91342C15.1541 6.90492 15.1512 6.89642 15.1483 6.88767C15.136 6.88355 15.1236 6.87943 15.1108 6.87517L15.0983 6.77518H15.0483V6.63767H14.9983V6.32517H14.9483V5.90017H14.8983L14.8858 5.07517C14.8611 5.0793 14.8363 5.08342 14.8108 5.08767L14.7858 5.12517C14.7735 5.1293 14.7611 5.13342 14.7483 5.13767L14.7358 5.16267C14.6537 5.18392 14.5708 5.19092 14.4858 5.18767V5.21267H14.4358V5.17517L14.3733 5.16267C14.3713 5.05942 14.3713 5.05942 14.3858 5.02517C14.3982 5.02105 14.4106 5.01692 14.4233 5.01267C14.4325 4.98742 14.4325 4.98742 14.4358 4.96267H14.4858V4.91267H14.5358V4.86267H14.6358V4.81267H14.6858V4.76267H14.7483V4.71267H14.7983V4.66267H14.8483V4.60017H14.8983V4.51267C14.9107 4.50855 14.9231 4.50442 14.9358 4.50017C14.945 4.47492 14.945 4.47492 14.9483 4.45017H14.9983V4.40017H15.0483V4.35017H15.0983V4.30017C15.2207 4.2908 15.3383 4.2848 15.4608 4.30017V4.25017H15.5733L15.5483 4.10017C15.536 4.09605 15.5236 4.09192 15.5108 4.08767L15.4983 4.00017C15.486 3.99605 15.4736 3.99192 15.4608 3.98767L15.4483 3.90017C15.436 3.89605 15.4236 3.89192 15.4108 3.88767C15.4067 3.87105 15.4025 3.8543 15.3983 3.83767C15.386 3.83355 15.3736 3.82942 15.3608 3.82517C15.3521 3.79617 15.3437 3.76692 15.3358 3.73767L15.3108 3.72517C15.3057 3.69617 15.3016 3.66692 15.2983 3.63767C15.286 3.63355 15.2736 3.62942 15.2608 3.62517C15.2583 3.60117 15.2561 3.5773 15.2538 3.5533C15.2525 3.53992 15.2512 3.52667 15.2498 3.51292C15.2485 3.47967 15.2506 3.45642 15.2608 3.42517H15.3608V3.37517H15.4108V3.42517H15.4608V3.47517H15.5108V3.52517H15.5608L15.5733 3.62517H15.6108C15.6127 3.63717 15.6127 3.63717 15.6147 3.64942C15.6176 3.65792 15.6205 3.66642 15.6233 3.67517C15.6357 3.6793 15.6481 3.68342 15.6608 3.68767L15.6733 3.77517C15.6857 3.7793 15.6981 3.78342 15.7108 3.78767L15.7233 3.88767H15.7608L15.7733 3.98767H15.9608V3.93767H16.0233V3.88767H16.1233V3.83767H16.2233V3.78767H16.3233V3.73767L16.4233 3.72517L16.4358 3.67517H16.5233L16.5358 3.62517H16.5858V3.58767L16.6858 3.57517V3.52517H16.7858V3.47517L16.8858 3.46267L16.8983 3.42517C16.9272 3.42105 16.9561 3.41692 16.9858 3.41267L16.9983 3.37517L17.0983 3.36267V3.32517L17.1983 3.31267L17.2108 3.26267H17.2608V3.22517L17.3608 3.21267V3.16267H17.4608V3.11267H17.5608V3.06267H17.6608V3.01267L17.7608 3.00017L17.7733 2.96267C17.8022 2.95855 17.8311 2.95442 17.8608 2.95017L17.8733 2.91267L17.9733 2.90017V2.86267L18.0733 2.85017L18.0858 2.80017H18.1733L18.1858 2.75017H18.2733V2.70017H18.3233V2.65017H18.4358V2.60017H18.5358V2.55017H18.6358V2.50017L18.7358 2.48767V2.45017L18.8358 2.43767V2.40017C18.8916 2.39392 18.8916 2.39392 18.9483 2.38767V2.33767H19.0483V2.28767H19.1483V2.23767H19.2483V2.18767H19.3483V2.13767L19.4483 2.12517V2.08767H19.5108V2.03767H19.6108V1.98767C19.6666 1.98142 19.6666 1.98142 19.7233 1.97517V1.93767L19.8233 1.92517V1.88767L19.9233 1.87517V1.82517H20.0233V1.77517L20.1733 1.76267V1.72517L20.2733 1.71267V1.67517H20.3358V1.62517H20.4358V1.57517C20.4915 1.56905 20.4915 1.56905 20.5483 1.56267V1.52517L20.6483 1.51267V1.47517L20.7483 1.46267V1.41267H20.8608V1.36267C20.9227 1.35655 20.9227 1.35655 20.9858 1.35017V1.31267L21.0858 1.30017V1.26267L21.1858 1.25017L21.1983 1.21267C21.2726 1.20642 21.2726 1.20642 21.3483 1.20017V1.16267C21.404 1.15642 21.404 1.15642 21.4608 1.15017V1.11267L21.5608 1.10017V1.06267C21.5835 1.06055 21.6061 1.05842 21.6288 1.05642C21.6477 1.05467 21.6477 1.05467 21.6671 1.05292C21.7191 1.04967 21.7712 1.05017 21.8233 1.05017L21.8248 1.05005ZM14.9373 7.76255V7.80005C14.9085 7.80417 14.8796 7.8083 14.8498 7.81255C14.8332 7.8623 14.8365 7.91068 14.8373 7.96255L14.7873 7.97505V8.06255L14.7373 8.07505V8.17505H14.6873V8.27505H14.6373V8.33755H14.5873V8.47505H14.5373L14.5248 8.57505C14.5062 8.5813 14.5062 8.5813 14.4873 8.58755L14.4748 8.68755H14.4373L14.4248 8.77505C14.4062 8.7813 14.4062 8.7813 14.3873 8.78755C14.3861 8.8033 14.3847 8.81905 14.3835 8.83518C14.3781 8.87905 14.371 8.89568 14.3373 8.92505C14.3283 8.95767 14.3283 8.95767 14.3248 8.98755C14.3062 8.9938 14.3062 8.9938 14.2873 9.00005L14.2748 9.08755C14.2562 9.0938 14.2562 9.0938 14.2373 9.10005L14.2248 9.20005C14.2062 9.2063 14.2062 9.2063 14.1873 9.21255L14.1748 9.33755C14.1562 9.3438 14.1562 9.3438 14.1373 9.35005C14.1311 9.39955 14.1311 9.39955 14.1248 9.45005C14.1125 9.45417 14.1001 9.4583 14.0873 9.46255L14.0748 9.55005C14.0625 9.55418 14.0501 9.5583 14.0373 9.56255C14.0286 9.59155 14.0202 9.6208 14.0123 9.65005L13.9873 9.66255C13.9835 9.67693 13.9796 9.69143 13.9756 9.7063C13.9691 9.72793 13.9691 9.72793 13.9623 9.75005C13.95 9.75418 13.9376 9.7583 13.9248 9.76255C13.9186 9.81205 13.9186 9.81205 13.9123 9.86255C13.9 9.86668 13.8876 9.8708 13.8748 9.87505L13.8623 9.96255C13.85 9.96668 13.8376 9.9708 13.8248 9.97505L13.8123 10.0626C13.8 10.0667 13.7876 10.0708 13.7748 10.0751V10.1751H13.7248L13.7123 10.2751C13.7 10.2792 13.6876 10.2833 13.6748 10.2875L13.6623 10.3751C13.65 10.3792 13.6376 10.3833 13.6248 10.3876C13.6046 10.4336 13.6115 10.4884 13.6123 10.5375L13.5623 10.5501V10.6501H13.5248C13.5128 10.6861 13.511 10.7088 13.5116 10.7462C13.5117 10.7613 13.5117 10.7613 13.5118 10.7768C13.5121 10.7844 13.5122 10.7922 13.5123 10.8001H13.4623V10.9001L13.4123 10.9125V11.1626H13.3623V11.5126H13.4123C13.4122 11.5263 13.4122 11.5263 13.4121 11.5404C13.4118 11.5822 13.4117 11.6239 13.4116 11.6654C13.4115 11.6799 13.4113 11.6944 13.4112 11.7093C13.4112 11.7233 13.4112 11.7372 13.4111 11.7516C13.411 11.7708 13.411 11.7708 13.411 11.7904C13.4122 11.8208 13.4161 11.8459 13.4248 11.8748H13.4623V12.0748H13.5123C13.5122 12.0851 13.5121 12.0953 13.5118 12.1058C13.5118 12.1193 13.5117 12.1328 13.5116 12.1467C13.5115 12.1601 13.5112 12.1733 13.5111 12.1871C13.5121 12.2189 13.5155 12.2446 13.5248 12.2748H13.5623V12.3873C13.5747 12.3914 13.5871 12.3956 13.5998 12.3998C13.6013 12.4096 13.6028 12.4193 13.6045 12.4294C13.6065 12.442 13.6086 12.4547 13.6108 12.4678C13.6128 12.4804 13.6148 12.4931 13.617 12.5061C13.6196 12.5163 13.6221 12.5267 13.6248 12.5373L13.6498 12.5498C13.6577 12.5838 13.6577 12.5838 13.6638 12.6256C13.6671 12.6463 13.6671 12.6463 13.6702 12.6674C13.6717 12.6781 13.6733 12.6888 13.6748 12.6998C13.6872 12.7039 13.6996 12.7081 13.7123 12.7123L13.7248 12.7998C13.7372 12.8039 13.7496 12.8081 13.7623 12.8123C13.7686 12.8557 13.7686 12.8557 13.7748 12.8998C13.7872 12.9039 13.7996 12.9081 13.8123 12.9123C13.8186 12.9803 13.8186 12.9803 13.8248 13.0498C13.8372 13.0539 13.8496 13.0581 13.8623 13.0623L13.8748 13.1623C13.8872 13.1664 13.8996 13.1706 13.9123 13.1748C13.9186 13.2182 13.9186 13.2182 13.9248 13.2623C13.9372 13.2664 13.9496 13.2706 13.9623 13.2748C13.9711 13.3038 13.9795 13.3331 13.9873 13.3623L14.0123 13.3748C14.0162 13.3889 14.0201 13.4032 14.0241 13.4178C14.0331 13.4652 14.0331 13.4652 14.0748 13.4873C14.0811 13.5059 14.0811 13.5059 14.0873 13.5248L14.1123 13.5373C14.1162 13.5517 14.1201 13.5662 14.1241 13.5811C14.1285 13.5954 14.1328 13.6099 14.1373 13.6248C14.1497 13.6289 14.1621 13.6331 14.1748 13.6373C14.1811 13.6807 14.1811 13.6807 14.1873 13.7248C14.1997 13.7289 14.2121 13.7331 14.2248 13.7373C14.229 13.7539 14.2332 13.7707 14.2373 13.7873C14.2497 13.7914 14.2621 13.7956 14.2748 13.7998L14.2873 13.8748C14.2997 13.8789 14.3121 13.8831 14.3248 13.8873C14.3336 13.9163 14.342 13.9456 14.3498 13.9748L14.3748 13.9873C14.3766 13.9956 14.3785 14.0038 14.3803 14.0123C14.3826 14.0206 14.385 14.0288 14.3873 14.0373C14.3997 14.0414 14.4121 14.0456 14.4248 14.0498C14.4311 14.0932 14.4311 14.0932 14.4373 14.1373H14.4873V14.1873H14.5873V14.2373H14.7498V14.1873H14.9998V14.1373H15.4123V14.0873C15.4201 14.0876 15.4278 14.0877 15.4358 14.0879C15.471 14.0887 15.5061 14.0892 15.5412 14.0897C15.5535 14.0899 15.5657 14.0903 15.5782 14.0906C15.59 14.0907 15.6017 14.0908 15.6137 14.0909C15.6246 14.0912 15.6353 14.0913 15.6465 14.0915C15.6812 14.0863 15.6888 14.0747 15.7123 14.0498C15.7472 14.0451 15.7797 14.0423 15.8147 14.0412C15.8241 14.0408 15.8335 14.0403 15.8431 14.0399C15.8662 14.0389 15.8892 14.0381 15.9123 14.0373L15.9248 13.9998C15.9361 13.9991 15.9475 13.9983 15.9591 13.9976C15.9812 13.9959 15.9812 13.9959 16.0037 13.9943C16.0183 13.9933 16.0331 13.9923 16.0481 13.9913C16.0877 13.9887 16.0877 13.9887 16.1248 13.9748L16.1373 13.9498C16.1775 13.9431 16.2172 13.9387 16.2577 13.9347C16.2802 13.9322 16.3026 13.9286 16.3248 13.9248L16.3373 13.8998C16.3713 13.8919 16.3713 13.8919 16.4131 13.8858C16.427 13.8837 16.4407 13.8816 16.455 13.8794C16.4656 13.8779 16.4763 13.8763 16.4873 13.8748L16.4998 13.8373L16.6373 13.8248V13.7748H16.7373V13.7248C16.7488 13.7251 16.7488 13.7251 16.7606 13.7253C16.7707 13.7253 16.7808 13.7254 16.7912 13.7256C16.8012 13.7257 16.8112 13.7259 16.8216 13.7261C16.852 13.7261 16.852 13.7261 16.8873 13.7123V13.6748L16.9873 13.6623V13.6248H17.0498V13.5748H17.1498L17.1623 13.5248C17.1912 13.5207 17.2201 13.5166 17.2498 13.5123L17.2623 13.4748C17.2881 13.4662 17.2881 13.4662 17.3123 13.4623V13.4248L17.4123 13.4123V13.3623H17.4623V13.3123H17.5123V13.2623H17.5748V13.2123H17.6248V13.1623H17.6748V13.1123H17.7248V13.0623L17.7748 13.0498V12.9998H17.8248V12.8998H17.8748V12.8373H17.9248V12.7498H17.9748L17.9873 12.6498C17.9997 12.6457 18.0121 12.6416 18.0248 12.6373L18.0373 12.5373H18.0748L18.0873 12.4373H18.1248L18.1373 12.3248H18.1748L18.1873 12.1873H18.2248C18.2261 12.1798 18.2275 12.1723 18.2287 12.1647C18.2373 12.1373 18.2373 12.1373 18.2561 12.1206C18.2802 12.0939 18.2808 12.0766 18.2835 12.0412C18.2847 12.0261 18.2847 12.0261 18.286 12.0106C18.2863 12.0029 18.2868 11.9952 18.2873 11.9873C18.2997 11.9832 18.3121 11.9791 18.3248 11.9748L18.3373 11.9373C18.3497 11.9332 18.3621 11.9291 18.3748 11.9248C18.3761 11.9109 18.3775 11.8969 18.3787 11.8826C18.383 11.8602 18.383 11.8602 18.3873 11.8373L18.4248 11.8123C18.4335 11.7832 18.4418 11.7541 18.4498 11.7248L18.4748 11.7123C18.4806 11.6907 18.4806 11.6907 18.4866 11.6686C18.491 11.6542 18.4953 11.6397 18.4998 11.6248C18.5122 11.6207 18.5246 11.6166 18.5373 11.6123V11.4748H18.4373V11.5123L18.3373 11.5248V11.5748H18.2873V11.6248H18.2373V11.6748H18.1748V11.7248H18.0873L18.0748 11.7748H17.9873L17.9748 11.8248H17.9248V11.8748C17.9016 11.8744 17.9016 11.8744 17.878 11.8741C17.8416 11.8739 17.8097 11.8757 17.7748 11.8873V11.9248L17.6123 11.9373V11.9748C17.4323 11.9811 17.4323 11.9811 17.2498 11.9873V12.0248L17.1123 12.0373L17.0998 12.0748C17.0741 12.0834 17.0741 12.0834 17.0498 12.0873V12.1373H16.9623L16.9498 12.1748C16.9332 12.1789 16.9165 12.1832 16.8998 12.1873L16.8873 12.2248C16.875 12.2289 16.8626 12.2331 16.8498 12.2373L16.8373 12.2748C16.8082 12.2832 16.779 12.2914 16.7498 12.2998L16.7373 12.3373C16.725 12.3414 16.7126 12.3456 16.6998 12.3498L16.6873 12.3873C16.675 12.3914 16.6626 12.3956 16.6498 12.3998L16.6248 12.4373C16.6125 12.4414 16.6001 12.4456 16.5873 12.4498L16.5748 12.4873C16.5501 12.4914 16.5253 12.4956 16.4998 12.4998V12.5498H16.4373V12.5998H16.3498L16.3373 12.6498H16.2873V12.6998H16.2373V12.7498L16.1373 12.7623L16.1248 12.7998C16.0991 12.8084 16.0991 12.8084 16.0748 12.8123V12.8623H16.0248V12.9123H15.9373V12.9623H15.8748V13.0123H15.8248V13.0623H15.7748V13.1123L15.6748 13.1248V13.1623L15.6123 13.1748V13.2123L15.5123 13.2248V13.2623C15.3636 13.2686 15.3636 13.2686 15.2123 13.2748V13.2248C15.1752 13.2207 15.1381 13.2166 15.0998 13.2123V13.1748L14.9998 13.1623V13.1248C14.9627 13.1207 14.9256 13.1166 14.8873 13.1123V13.0748C14.8585 13.0707 14.8296 13.0666 14.7998 13.0623V13.0123H14.7373V12.9623H14.6498L14.6373 12.8123H14.5873L14.5998 12.3373H14.6373V10.7498H14.5873V10.6373H14.5373V10.5373H14.4873V10.4373H14.4373V10.3373H14.3873C14.3875 10.3297 14.3876 10.3219 14.3878 10.3141C14.3878 10.3039 14.388 10.2938 14.3881 10.2834C14.3882 10.2734 14.3885 10.2634 14.3886 10.253C14.3886 10.2227 14.3886 10.2227 14.3748 10.1873H14.3373C14.3311 10.1131 14.3311 10.1131 14.3248 10.0373H14.2873C14.2811 9.87605 14.2811 9.87605 14.2748 9.7123H14.2373V9.5998H14.2748L14.2873 9.3373H14.3248L14.3373 9.1373H14.3748C14.3915 9.08755 14.3882 9.03918 14.3873 8.9873H14.4373V8.8873H14.4873V8.8248H14.5373V8.7373H14.5873V8.6748H14.6498V8.6248H14.8498V8.6748H14.9498V9.1998H14.9998V9.3498H15.0498V9.3998H15.0998V9.4498H15.1498V9.4998H15.2123V9.5498H15.3123V9.5998L15.4123 9.6123V9.6498L15.5123 9.6623L15.5248 9.7123H15.6123V9.7623H15.7248V9.8123H15.8248V9.8623H15.9248V9.9123H15.9873V9.9623H16.1248V10.0123C16.162 10.0164 16.1991 10.0205 16.2373 10.0248V10.0623C16.2493 10.0642 16.2493 10.0642 16.2616 10.0662C16.2701 10.069 16.2786 10.0719 16.2873 10.0748L16.2998 10.1123L16.3998 10.1248V10.1623L16.5248 10.1873L16.5373 10.2248L16.6373 10.2373L16.6498 10.2748C16.6622 10.2789 16.6746 10.2831 16.6873 10.2873L16.6998 10.3248L16.7998 10.3373L16.8123 10.3748C16.8212 10.3763 16.8301 10.3778 16.8392 10.3794C16.8507 10.3814 16.8622 10.3836 16.8741 10.3858C16.8912 10.3888 16.8912 10.3888 16.9087 10.3919C16.9182 10.3946 16.9276 10.397 16.9373 10.3998L16.9498 10.4248C16.9581 10.4265 16.9663 10.4284 16.9748 10.4303C16.9831 10.4326 16.9913 10.4349 16.9998 10.4373L17.0123 10.4748H17.0998L17.1123 10.5248C17.1412 10.5289 17.1701 10.5331 17.1998 10.5373V10.5748C17.237 10.5789 17.2741 10.583 17.3123 10.5873V10.6248L17.4123 10.6373V10.6873H17.5123L17.5248 10.7373H17.6623V10.7873H17.7748V10.8373L17.9748 10.8498V10.8873H18.0248L18.0373 10.8498L18.1748 10.8373V10.7873H18.2748L18.2873 10.7498C18.2997 10.7457 18.3121 10.7416 18.3248 10.7373L18.3373 10.6998C18.3662 10.6957 18.3951 10.6916 18.4248 10.6873L18.4373 10.6498C18.454 10.6457 18.4707 10.6414 18.4873 10.6373L18.4998 10.5998C18.549 10.5814 18.6012 10.5859 18.6523 10.5865C18.6617 10.5865 18.671 10.5867 18.6806 10.5867C18.7035 10.5868 18.7263 10.5871 18.7492 10.5873V10.6373H18.7992L18.8117 10.7373H18.8992V10.6873H18.9492V10.5873H18.9992V10.4873L19.0492 10.4748V10.3748H19.0992V10.3248H19.1492V10.2123H19.1992L19.2117 10.0748H19.2492L19.2617 9.9623H19.2992V9.8748H19.2617L19.2492 9.8123H19.1992V9.7748L19.0992 9.7623V9.7248L18.9992 9.7123V9.6623C18.9703 9.65818 18.9415 9.65405 18.9117 9.6498L18.8992 9.6123C18.891 9.6103 18.8827 9.60818 18.8742 9.60605C18.866 9.60405 18.8577 9.60192 18.8492 9.5998L18.8367 9.5623C18.8078 9.55818 18.779 9.55405 18.7492 9.5498L18.7367 9.5123C18.7243 9.50817 18.712 9.50405 18.6992 9.4998L18.6867 9.4623C18.6578 9.45817 18.629 9.45405 18.5992 9.4498L18.5867 9.4123C18.5758 9.4073 18.5758 9.4073 18.5648 9.40217C18.5367 9.3873 18.5367 9.3873 18.5078 9.3498C18.4743 9.30667 18.4392 9.30042 18.3867 9.2873L18.3742 9.2498C18.3618 9.24568 18.3495 9.24155 18.3367 9.2373L18.3242 9.1998C18.3118 9.19567 18.2995 9.19155 18.2867 9.1873L18.2742 9.1498H18.1867V9.0998H18.1367V9.0498H18.0867V8.9998L18.0367 8.9873L18.0242 8.9373H17.9742V8.8873H17.9242V8.8373H17.8742V8.7873H17.8242V8.7373H17.7742L17.7617 8.6373C17.7493 8.63317 17.737 8.62905 17.7242 8.6248L17.7117 8.5873C17.6993 8.58317 17.687 8.57905 17.6742 8.5748L17.6617 8.5373C17.6493 8.53317 17.637 8.52905 17.6242 8.5248C17.6156 8.49905 17.6156 8.49905 17.6117 8.4748H17.5742L17.5617 8.3748H17.5117V8.2748H17.4617V8.2248H17.4117V8.1748H17.2617L17.2492 8.2123C17.1258 8.21317 17.0017 8.2138 16.8792 8.2143C16.8218 8.21443 16.7646 8.21468 16.7067 8.21518C16.6515 8.21555 16.5962 8.2158 16.5405 8.2158C16.5193 8.21593 16.4982 8.21605 16.4771 8.2163C16.4476 8.21655 16.418 8.21655 16.3885 8.21655C16.3753 8.2168 16.3753 8.2168 16.3618 8.21692C16.3376 8.2168 16.3376 8.2168 16.2985 8.2123L16.2735 8.1748C16.2415 8.17092 16.2117 8.16892 16.1797 8.16855C16.1477 8.16817 16.118 8.16617 16.086 8.1623C16.0736 8.14367 16.0736 8.14367 16.061 8.1248C16.0288 8.11867 15.9988 8.11442 15.9665 8.11155C15.9351 8.10855 15.9046 8.1048 15.8735 8.0998L15.861 8.0748C15.8368 8.06892 15.8368 8.06892 15.8078 8.06692C15.7971 8.0658 15.7865 8.0648 15.7755 8.06368C15.7642 8.06268 15.753 8.0618 15.7415 8.0608C15.7302 8.05967 15.7188 8.05855 15.7073 8.05743C15.6793 8.0548 15.6515 8.0523 15.6235 8.0498L15.611 8.0123H15.4735L15.461 7.9623H15.361V7.9123H15.261V7.8623H15.111V7.8123H14.9985V7.7623H14.936L14.9373 7.76255ZM14.9998 11.9876V12.6501H15.0498V12.7501H15.0998V12.8001H15.1498V12.8501H15.2623V12.9001H15.3623V12.8501H15.5123V12.8001H15.5748V12.7501H15.6623L15.6748 12.7126C15.6872 12.7084 15.6996 12.7043 15.7123 12.7001L15.7248 12.6626C15.7372 12.6584 15.7496 12.6543 15.7623 12.6501L15.7748 12.6126C15.7872 12.6084 15.7996 12.6043 15.8123 12.6001C15.8143 12.5918 15.8165 12.5836 15.8186 12.5751C15.8206 12.5668 15.8227 12.5586 15.8248 12.5501C15.8372 12.5459 15.8496 12.5418 15.8623 12.5376V12.3876C15.8437 12.3813 15.8437 12.3813 15.8248 12.3751C15.8186 12.3564 15.8186 12.3564 15.8123 12.3376C15.8 12.3334 15.7876 12.3293 15.7748 12.3251C15.7686 12.3127 15.7686 12.3127 15.7623 12.3001C15.7301 12.2914 15.7301 12.2914 15.6928 12.2861C15.6802 12.2839 15.6675 12.2818 15.6545 12.2797C15.6447 12.2782 15.635 12.2766 15.6248 12.2751C15.6186 12.2564 15.6186 12.2564 15.6123 12.2376H15.5123V12.1876H15.4123V12.1376H15.3123V12.0876H15.2498V12.0376H15.1498V11.9876H14.9998Z" fill="url(#paint0_linear_322_3606)"/>
<path d="M21.1623 13.475H21.5623C21.5684 13.4936 21.5684 13.4936 21.5748 13.5125L21.8123 13.525C21.8184 13.5436 21.8184 13.5436 21.8248 13.5625C21.8928 13.5687 21.8928 13.5687 21.9623 13.575L21.9748 13.625H22.0748L22.0873 13.675L22.1498 13.6875V13.7125L22.2373 13.7375V13.775L22.2873 13.7875V13.825H22.3373V13.875H22.3873V13.925H22.4373V13.975H22.4873V14.0375H22.5373V14.0875H22.5873L22.5998 14.1875H22.6373L22.6498 14.2875H22.6873L22.6998 14.3875H22.7373C22.7386 14.3955 22.7399 14.4035 22.7412 14.4117C22.7454 14.4245 22.7454 14.4245 22.7498 14.4375C22.7622 14.4416 22.7746 14.4457 22.7873 14.45C22.8042 14.4912 22.8011 14.5342 22.8006 14.5775C22.8004 14.591 22.8003 14.6045 22.8003 14.6184C22.8001 14.6337 22.8001 14.6337 22.7998 14.6494H22.8498V14.9119H22.8998V15.0744H22.8498V15.1619H22.8998V15.2244H22.8498C22.8501 15.2356 22.8501 15.2356 22.8503 15.2472C22.8503 15.2572 22.8504 15.2672 22.8506 15.2775C22.8507 15.2874 22.8509 15.2972 22.8511 15.3074C22.8498 15.3357 22.8452 15.3597 22.8373 15.3869H22.7998C22.8001 15.4024 22.8003 15.4177 22.8006 15.4337C22.8003 15.5072 22.8003 15.5072 22.7873 15.5369C22.7749 15.541 22.7626 15.5451 22.7498 15.5494L22.7373 15.6369C22.7249 15.641 22.7126 15.6451 22.6998 15.6494L22.6873 15.7369C22.6749 15.741 22.6626 15.7451 22.6498 15.7494L22.6373 15.8369C22.6249 15.841 22.6126 15.8451 22.5998 15.8494C22.5907 15.8746 22.5907 15.8746 22.5873 15.8994H22.5373V15.9994H22.4873V16.0494H22.4373L22.4248 16.1494H22.3873L22.3748 16.2119H22.3373L22.3248 16.2619H22.2873V16.3119H22.2498L22.2373 16.3994L22.1873 16.4119V16.4619H22.1373V16.5244H22.0873V16.6119L22.0373 16.6244L22.0248 16.7244H21.9873L21.9748 16.8244H21.9373V17.3994H21.9748C21.9914 17.4491 21.9882 17.4975 21.9873 17.5494H22.0373V17.6494H22.0873V17.7494H22.1373V17.8119H22.1873V17.8619H22.2373L22.2498 17.9619H22.2873L22.2998 17.9994C22.3122 18.0035 22.3246 18.0076 22.3373 18.0119L22.3498 18.0494C22.3622 18.0535 22.3746 18.0576 22.3873 18.0619L22.3998 18.0994C22.4142 18.1035 22.4287 18.1076 22.4436 18.1119C22.4579 18.116 22.4724 18.1201 22.4873 18.1244L22.4998 18.1619C22.5122 18.166 22.5246 18.1701 22.5373 18.1744L22.5498 18.2119C22.5622 18.216 22.5746 18.2201 22.5873 18.2244C22.5997 18.243 22.5997 18.243 22.6123 18.2619C22.6247 18.266 22.6371 18.2701 22.6498 18.2744L22.6623 18.3119C22.6747 18.316 22.6871 18.3201 22.6998 18.3244V18.3744H22.7498V18.4244H22.7998V18.4744H22.4873V18.4244C22.4724 18.4245 22.4576 18.4246 22.4422 18.4249C22.4226 18.4249 22.4029 18.425 22.3834 18.4251C22.3736 18.4252 22.3638 18.4254 22.3537 18.4255C22.3394 18.4255 22.3394 18.4255 22.3249 18.4256C22.3119 18.4257 22.3119 18.4257 22.2986 18.4257C22.2748 18.4244 22.2748 18.4244 22.2373 18.4119V18.3744C22.2262 18.3745 22.2151 18.3746 22.2036 18.3749C22.1816 18.375 22.1816 18.375 22.1592 18.3751C22.1374 18.3754 22.1374 18.3754 22.1152 18.3756C22.0822 18.3746 22.0561 18.3717 22.0248 18.3619V18.3244L21.9248 18.3119V18.2744L21.7748 18.2619C21.7687 18.2432 21.7687 18.2432 21.7623 18.2244L21.6123 18.2119V18.1619H21.4998V18.1119H21.3623V18.0619H21.2498V18.0119H21.1998V17.9619H21.0998V17.9119H21.0498V17.8619C21.0418 17.8606 21.0338 17.8592 21.0256 17.858C21.0128 17.8537 21.0128 17.8537 20.9998 17.8494C20.9937 17.8307 20.9937 17.8307 20.9873 17.8119C20.9623 17.7967 20.9623 17.7967 20.9373 17.7869V17.7494L20.8873 17.7369V17.6994L20.8373 17.6869V17.6494H20.7998L20.7873 17.5494H20.7498V17.4494H20.6998L20.6873 17.3494H20.6498L20.6373 17.2369H20.5998L20.5873 17.0244H20.5498V16.4619L20.5748 16.4494C20.5808 16.4155 20.5853 16.3826 20.5888 16.3486C20.5899 16.3391 20.5911 16.3296 20.5922 16.3199C20.5948 16.2964 20.5973 16.2729 20.5998 16.2494H20.6498V16.1369H20.6873C20.6934 16.0874 20.6934 16.0874 20.6998 16.0369H20.7498V15.9369H20.7873V15.8494L20.8373 15.8369V15.7494L20.8873 15.7244V15.6494C20.8994 15.6454 20.8994 15.6454 20.9117 15.6412C20.9408 15.6262 20.9408 15.6262 20.9449 15.5919C20.9456 15.5794 20.9461 15.5669 20.9467 15.5541C20.9474 15.5415 20.9481 15.529 20.9488 15.5161C20.9492 15.5065 20.9494 15.4967 20.9498 15.4869L20.9998 15.4744L21.0123 15.4119H21.0373L21.0498 15.2744C21.0622 15.2702 21.0746 15.2661 21.0873 15.2619V15.0744H21.0498C21.0437 15.0249 21.0437 15.0249 21.0373 14.9744C21.0254 14.9734 21.0136 14.9724 21.0013 14.9712C20.9623 14.9619 20.9623 14.9619 20.9451 14.9384C20.9373 14.9119 20.9373 14.9119 20.9373 14.8744C20.9084 14.8702 20.8796 14.8661 20.8498 14.8619V14.8119H20.7998L20.7873 14.7744C20.7584 14.7702 20.7296 14.7661 20.6998 14.7619V14.7119H20.5998L20.5873 14.6744L20.4873 14.6619V14.6119H20.3873V14.5619C20.3378 14.5557 20.3378 14.5557 20.2873 14.5494C20.2812 14.4566 20.2812 14.4566 20.2748 14.3619H20.2373V14.2869H20.2748L20.2873 13.7744H20.3373V13.6744H20.3873V13.6244H20.4873V13.5744C20.5616 13.5681 20.5616 13.5681 20.6373 13.5619L20.6498 13.5244C20.8173 13.5144 20.9823 13.5102 21.1498 13.5119L21.1623 13.4744V13.475Z" fill="#2A1163"/>
<path d="M14.5876 15.475H14.7376V15.525L14.8376 15.5375V15.575L14.9001 15.5875V15.625H14.9501V15.675L15.0501 15.6875V15.7375H15.1001V15.7875H15.1876L15.2001 15.8375L15.2626 15.85V15.8875H15.3126V15.9375H15.4001L15.4126 15.9875C15.4414 15.9916 15.4703 15.9957 15.5001 16L15.5126 16.05L15.5626 16.0625V16.1L15.6251 16.1125V16.1375L15.7126 16.1625V16.2L15.7751 16.2125V16.25L15.8251 16.2625V16.3L15.8751 16.3125V16.35L15.9251 16.3625V16.4125H15.9751L15.9876 17.6H16.0251L16.0376 17.8625H16.0751V18.0625C16.0627 18.0666 16.0503 18.0707 16.0376 18.075L16.0251 18.1125H15.9751V18.1625H15.8751V18.2125L15.7251 18.225V18.2625L15.6251 18.275L15.6126 18.3125L15.4626 18.325V18.375H15.3626V18.425H15.2501V18.475H15.1001V18.525H15.0001V18.575H14.8501V18.625H14.7376V18.675L14.5876 18.6875V18.725C14.5504 18.7291 14.5133 18.7332 14.4751 18.7375V18.775L14.3751 18.7875V18.825C14.3407 18.8365 14.3206 18.8389 14.2852 18.8382C14.2694 18.838 14.2538 18.8377 14.2376 18.8375V18.8875H14.0876V18.9375L13.9376 18.95L13.9251 18.9875H13.7751V19.0375H13.6751V19.0875H13.6251L13.6126 19.35H13.5751C13.5752 19.357 13.5753 19.3639 13.5756 19.3711C13.5763 19.4362 13.5719 19.4986 13.5626 19.5624H13.5126V19.5999H13.4626V19.5624C13.4254 19.5582 13.3883 19.5541 13.3501 19.5499V19.5124L13.2001 19.4999V19.4499H13.0876V19.4124L12.9501 19.3999C12.9438 19.3751 12.9438 19.3751 12.9376 19.3499H12.8501V19.2999H12.7376V19.2499H12.6501C12.6334 19.2001 12.6367 19.1517 12.6376 19.0999L12.6876 19.0874L12.7001 18.9999H12.7376L12.7501 18.9374C12.7624 18.9332 12.7748 18.9291 12.7876 18.9249L12.8001 18.8874H12.8876V18.8374H12.9376V18.7874H12.9876V18.7374H13.0501V18.6874C13.0789 18.6832 13.1078 18.6791 13.1376 18.6749L13.1501 18.6374C13.1789 18.6332 13.2078 18.6291 13.2376 18.6249L13.2501 18.5749H13.3001V18.5374L13.4001 18.5249V18.4749H13.5126V18.4249H13.6126V18.3749H13.7126V18.3249L13.8126 18.3124V18.2749C13.8206 18.2736 13.8286 18.2722 13.8368 18.271C13.8496 18.2667 13.8496 18.2667 13.8626 18.2624L13.8751 18.2249C13.9039 18.2207 13.9328 18.2166 13.9626 18.2124L13.9751 18.1749L14.0751 18.1624V18.1249L14.1751 18.1124V18.0624H14.2751V18.0124H14.3876V17.9624H14.4876V17.9124H14.5876V17.8624L14.6876 17.8499V17.8124C14.7247 17.8082 14.7618 17.8041 14.8001 17.7999V17.7624L14.9001 17.7499V17.7124L15.0001 17.6999V17.6499H15.0501V17.4999H15.0001V17.3999H14.9501V17.3374H14.9001V17.2374H14.8501V17.1374H14.8001L14.7876 16.9874H14.7501L14.7376 16.8749H14.7001C14.6867 16.8316 14.6863 16.7919 14.6868 16.7474C14.6869 16.7339 14.6871 16.7204 14.6871 16.7065C14.6873 16.6911 14.6873 16.6911 14.6876 16.6755H14.6376V16.513H14.6001C14.5868 16.4732 14.5862 16.4451 14.5863 16.4035C14.5864 16.3895 14.5864 16.3755 14.5864 16.3611C14.5866 16.3465 14.5867 16.332 14.5868 16.3169C14.5868 16.3021 14.5869 16.2874 14.5869 16.2722C14.5871 16.2359 14.5873 16.1994 14.5876 16.163H14.5376V15.588L14.5876 15.5755V15.4755V15.475Z" fill="#2A1163"/>
<path d="M7.41254 5.27502H7.46254V5.32502H7.66254V5.37502C7.69967 5.37915 7.73679 5.38327 7.77504 5.38752V5.42502L7.92504 5.43752V5.48752H8.03754V5.52502L8.17504 5.53752C8.18129 5.55615 8.18129 5.55615 8.18754 5.57502L8.33754 5.58752V5.63752H8.48754V5.68752H8.65004V5.73752H8.75004V5.78752C8.75717 5.78727 8.76429 5.7869 8.77154 5.78665C8.83667 5.78515 8.88842 5.79152 8.95029 5.81252V5.85002H9.05029L9.06279 5.88752L9.20029 5.90002V5.95002H9.30029V6.00002H9.36279V6.03752L9.46279 6.05002V6.10002H9.56279V6.15002H9.66279V6.20002H9.76279L9.77529 6.25002L9.87529 6.26252V6.30002L9.97529 6.31252V6.36252H10.0253V6.40002L10.1253 6.41252V6.46252H10.1753V6.51252H10.2378V6.56252L10.2878 6.57502V6.61252H10.3253L10.3378 6.72502H10.3753C10.3859 6.76177 10.3894 6.79452 10.3894 6.83265C10.3894 6.84402 10.3895 6.8554 10.3895 6.86702C10.3895 6.88527 10.3895 6.88527 10.3894 6.9039C10.3894 6.91652 10.3894 6.92902 10.3895 6.94202C10.3895 6.96865 10.3894 6.99515 10.3894 7.02177C10.3894 7.0624 10.3894 7.10302 10.3895 7.14365C10.3895 7.16952 10.3894 7.19527 10.3894 7.22115C10.3894 7.23327 10.3895 7.2454 10.3895 7.25802C10.3894 7.27502 10.3894 7.27502 10.3894 7.2924V7.32252C10.3878 7.3499 10.3828 7.37377 10.3753 7.40002H10.3378V7.50002H10.2878L10.2753 7.60002H10.2253V7.65002C10.2129 7.65415 10.2005 7.65827 10.1878 7.66252C10.1787 7.68777 10.1787 7.68777 10.1753 7.71252H10.1253V7.76252H10.0753V7.81252H10.0253V7.86252H9.97529V7.91252C9.96729 7.91377 9.95929 7.91515 9.95104 7.9164C9.94254 7.91927 9.93404 7.92215 9.92529 7.92502L9.91279 7.96252C9.90042 7.96665 9.88804 7.97077 9.87529 7.97502L9.86279 8.01252H9.81279V8.06252H9.76279V8.11252H9.71279V8.16252C9.70042 8.16665 9.68804 8.17077 9.67529 8.17502C9.66617 8.20027 9.66617 8.20027 9.66279 8.22502H9.61279V8.27502H9.56279V8.32502H9.51279V8.37502H9.46279L9.45029 8.43752H9.41279L9.40029 8.48752H9.36279L9.35029 8.58752H9.30029V8.68752H9.25029V8.73752H9.21279L9.20029 8.83752H9.16279L9.15029 8.90002H9.11279V8.97502C9.10504 8.97815 9.09729 8.98127 9.08929 8.9844C9.05842 9.00265 9.05092 9.01727 9.03779 9.05002H9.01279L9.00029 9.10002H8.95029L8.93779 9.15002H8.85029L8.83779 9.20002H8.78779V9.15002H8.73779V9.10002H8.68779V8.77502H8.73779V8.57502H8.78779V8.42502H8.83779V8.31252H8.88779C8.89404 8.26302 8.89404 8.26302 8.90029 8.21252H8.93779L8.95029 8.06252C8.96267 8.0584 8.97504 8.05427 8.98779 8.05002L9.00029 7.91252C9.01267 7.9084 9.02504 7.90427 9.03779 7.90002V7.76252C9.02542 7.7584 9.01304 7.75427 9.00029 7.75002L8.98779 7.61252C8.97542 7.6084 8.96304 7.60427 8.95029 7.60002C8.94092 7.44752 8.93642 7.29502 8.93629 7.14252C8.93617 7.12665 8.93617 7.1109 8.93604 7.09452C8.93604 7.07965 8.93617 7.06477 8.93617 7.04952V7.00927C8.93754 6.9789 8.94154 6.95352 8.95029 6.92452H8.98779L9.00029 6.82452H9.05029V6.71202H9.10029V6.62452H9.05029V6.57452L9.00029 6.56202V6.52452L8.93779 6.51202V6.47452H8.86279C8.86042 6.46652 8.85817 6.45852 8.85579 6.45027C8.83854 6.41927 8.83854 6.41927 8.79254 6.41515C8.77854 6.41415 8.76467 6.41302 8.75029 6.41202L8.73779 6.36202C8.71304 6.35577 8.71304 6.35577 8.68779 6.34952V6.32452C8.65892 6.3204 8.63004 6.31627 8.60029 6.31202L8.58779 6.26202H8.50029L8.48779 6.21202L8.42529 6.19952V6.16202H8.33779L8.32529 6.11202C8.31729 6.11077 8.30929 6.1094 8.30104 6.10815C8.29254 6.10527 8.28404 6.1024 8.27529 6.09952L8.26279 6.06202H8.18779C8.18154 6.03727 8.18154 6.03727 8.17529 6.01202C8.14642 6.0079 8.11754 6.00377 8.08779 5.99952C8.08154 5.97477 8.08154 5.97477 8.07529 5.94952L8.01279 5.93702V5.91202C7.98392 5.9079 7.95504 5.90377 7.92529 5.89952C7.91904 5.87477 7.91904 5.87477 7.91279 5.84952L7.86279 5.83702V5.79952H7.77529C7.76917 5.77477 7.76917 5.77477 7.76279 5.74952L7.70029 5.73702V5.69952H7.62529V5.64952H7.56279V5.59952L7.46279 5.58702V5.53702H7.41279L7.40029 5.49952C7.38792 5.4954 7.37554 5.49127 7.36279 5.48702V5.32452H7.40029L7.41254 5.27502ZM9.51254 6.98752L9.50004 7.08752H9.46254C9.45029 7.13815 9.44904 7.18552 9.45004 7.23752H9.41254V7.33752H9.45004V7.38752H9.50004V7.43752H9.66254V7.38752H9.76254V7.33752H9.81254L9.82504 7.23752L9.87504 7.22502V7.03752H9.81254V6.98752H9.51254Z" fill="#7C0F80"/>
<path d="M19.5624 5.17505H19.8124V5.22505H19.9749V5.27505H20.1249V5.32505L20.2249 5.33755C20.2311 5.35617 20.2311 5.35617 20.2374 5.37505C20.2627 5.38417 20.2627 5.38417 20.2874 5.38755V5.43755H20.3374V5.48755H20.3874V5.53755H20.4374V5.58755H20.4874V5.63755H20.5374V5.68755H20.5874C20.5936 5.73705 20.5936 5.73705 20.5999 5.78755H20.6374C20.6387 5.79555 20.6401 5.80355 20.6413 5.8118C20.6442 5.8203 20.6471 5.8288 20.6499 5.83755C20.6684 5.8438 20.6684 5.8438 20.6874 5.85005C20.6936 5.89955 20.6936 5.89955 20.6999 5.95005H20.7374C20.7541 5.9998 20.7508 6.04817 20.7499 6.10005H20.7999V6.77505L20.7499 6.78755C20.7502 6.7968 20.7506 6.80592 20.7508 6.81542C20.7511 6.82767 20.7513 6.8398 20.7514 6.85242C20.7518 6.86442 20.7521 6.87642 20.7524 6.88892C20.7498 6.92667 20.7408 6.95342 20.7249 6.98755H20.6999V7.12505H20.7374C20.7483 7.16242 20.7513 7.19555 20.7507 7.23442C20.7506 7.24442 20.7504 7.25442 20.7504 7.26467C20.7502 7.2723 20.7501 7.2798 20.7499 7.28755H20.7999V7.33755H20.8499V7.38755H20.8999V7.43755H20.9999L21.0124 7.48755H21.1499L21.1624 7.45005C21.2022 7.4368 21.2303 7.43617 21.2719 7.4363C21.2859 7.43642 21.2999 7.43642 21.3143 7.43642C21.3289 7.43655 21.3434 7.43667 21.3586 7.4368C21.3733 7.4368 21.3881 7.43692 21.4032 7.43692C21.4396 7.43705 21.4761 7.4373 21.5124 7.43755C21.5326 7.51405 21.5371 7.59005 21.4999 7.66255H21.4749L21.4499 7.75005H21.4124L21.3999 7.81255H21.3624V7.86255H21.3124V7.91255H21.2624V7.96255H21.2124V8.01255H21.1624V8.06255H21.1124L21.0999 8.11255C21.0711 8.11667 21.0422 8.1208 21.0124 8.12505L20.9999 8.17505H20.9499V8.21255C20.9046 8.22767 20.8631 8.22655 20.8162 8.2263C20.8068 8.2263 20.7974 8.22617 20.7878 8.22617C20.7578 8.22617 20.7279 8.22605 20.6979 8.2258C20.6777 8.2258 20.6573 8.22567 20.6371 8.22567C20.5873 8.22555 20.5376 8.2253 20.4883 8.22505V8.17505C20.4728 8.1753 20.4574 8.17555 20.4414 8.1758C20.4051 8.17592 20.3732 8.17417 20.3383 8.16255V8.12505L20.2383 8.11255V8.07505L20.1758 8.06255V8.02505C20.1469 8.02092 20.1181 8.0168 20.0883 8.01255L20.0758 7.97505C20.0506 7.96592 20.0506 7.96592 20.0258 7.96255V7.91255H19.9758V7.86255H19.9258V7.76255H19.8758L19.8633 7.66255H19.8258L19.8133 7.45005H19.7758V6.76255H19.8133V6.57505H19.7758C19.7696 6.52555 19.7696 6.52555 19.7633 6.47505H19.7258C19.7248 6.45905 19.7238 6.44305 19.7227 6.42655C19.7201 6.39942 19.7201 6.39942 19.7133 6.37505C19.6893 6.35517 19.6893 6.35517 19.6633 6.35005V6.31255C19.6509 6.30842 19.6386 6.3043 19.6258 6.30005C19.6098 6.25192 19.6124 6.21317 19.6133 6.16255L19.5633 6.15005V6.01255L19.5133 6.00005V5.95005L19.4633 5.93755L19.4508 5.80005H19.4133V5.70005L19.3633 5.68755L19.3508 5.60005C19.3384 5.59592 19.3261 5.5918 19.3133 5.58755L19.3008 5.48755C19.2884 5.48342 19.2761 5.4793 19.2633 5.47505C19.2448 5.43142 19.2499 5.38417 19.2508 5.33755L19.3008 5.32505V5.27505H19.4008V5.22505C19.4751 5.2188 19.4751 5.2188 19.5508 5.21255L19.5633 5.17505H19.5624Z" fill="#750F7D"/>
<defs>
<linearGradient id="paint0_linear_322_3606" x1="14.744" y1="1.05005" x2="14.744" y2="20.7876" gradientUnits="userSpaceOnUse">
<stop stop-color="#960E89"/>
<stop offset="1" stop-color="#19125D"/>
</linearGradient>
</defs>
</svg>
