<svg width="20" height="20" viewBox="0 0 20 20" fill="none" xmlns="http://www.w3.org/2000/svg">
<path d="M18.3333 9.99996C18.3333 14.6023 14.6023 18.3333 9.99996 18.3333C5.39758 18.3333 1.66663 14.6023 1.66663 9.99996C1.66663 5.39758 5.39758 1.66663 9.99996 1.66663C14.6023 1.66663 18.3333 5.39758 18.3333 9.99996Z" fill="#40FD3F"/>
<path d="M13.3586 7.47468C13.6027 7.71876 13.6027 8.11449 13.3586 8.35854L9.19196 12.5252C8.94787 12.7693 8.55221 12.7693 8.3081 12.5252L6.64143 10.8585C6.39736 10.6145 6.39736 10.2188 6.64143 9.97471C6.88551 9.73062 7.28124 9.73062 7.52531 9.97471L8.75004 11.1994L10.6124 9.33704L12.4748 7.47468C12.7189 7.23061 13.1145 7.23061 13.3586 7.47468Z" fill="white"/>
</svg>
