<svg width="26" height="25" viewBox="0 0 26 25" fill="none" xmlns="http://www.w3.org/2000/svg">
<g clip-path="url(#clip0_144_575)">
<path d="M25.5666 9.4832C25.4736 9.20547 25.233 9.00313 24.9436 8.95859L17.2584 7.78437L13.815 0.449219C13.6861 0.175 13.4103 0 13.1076 0C12.8049 0 12.5295 0.175 12.4002 0.449219L8.95683 7.78437L1.27168 8.95898C0.982223 9.00313 0.741989 9.20586 0.648629 9.48359C0.555661 9.76094 0.625582 10.0672 0.83027 10.277L6.41386 16.0023L5.09433 24.0898C5.0459 24.3852 5.1705 24.6824 5.41543 24.8543C5.5498 24.9492 5.70722 24.9973 5.86504 24.9973C5.99472 24.9973 6.12519 24.9645 6.24316 24.8996L13.1072 21.1031L19.9713 24.8996C20.0893 24.9645 20.2197 24.9973 20.3494 24.9973C20.5072 24.9973 20.665 24.9492 20.799 24.8543C21.0439 24.6824 21.1686 24.3852 21.1201 24.0898L19.8006 16.0023L25.3842 10.277C25.5893 10.0668 25.6596 9.76055 25.5666 9.4832Z" fill="#C4C4C4"/>
</g>
<path d="M13.0633 19.098C12.0366 19.098 11.2013 18.79 10.5573 18.174C9.93195 17.5767 9.57728 16.8953 9.49328 16.13L10.5293 15.934C10.5853 16.5127 10.8419 17.0213 11.2993 17.46C11.7659 17.8987 12.3539 18.118 13.0633 18.118C13.3153 18.118 13.5719 18.076 13.8333 17.992C14.1039 17.908 14.3653 17.7867 14.6173 17.628C14.8786 17.4693 15.0886 17.2407 15.2473 16.942C15.4153 16.6433 15.4993 16.3027 15.4993 15.92C15.4993 15.332 15.2753 14.856 14.8273 14.492C14.3886 14.1373 13.8053 13.96 13.0773 13.96C12.7226 13.96 12.4053 14.0113 12.1253 14.114L11.6213 13.26L14.9673 9.774H9.73128V8.794H16.3393V9.732L13.1753 12.98C14.0153 12.952 14.7479 13.162 15.3733 13.61C16.1759 14.1607 16.5773 14.9167 16.5773 15.878C16.5773 16.522 16.4186 17.0867 16.1013 17.572C15.7933 18.0573 15.3686 18.4353 14.8273 18.706C14.3046 18.9673 13.7166 19.098 13.0633 19.098Z" fill="black"/>
<defs>
<clipPath id="clip0_144_575">
<rect width="25" height="25" fill="white" transform="translate(0.608398)"/>
</clipPath>
</defs>
</svg>
