<svg width="25" height="25" viewBox="0 0 25 25" fill="none" xmlns="http://www.w3.org/2000/svg">
<g clip-path="url(#clip0_144_620)">
<path d="M24.9582 9.4832C24.8652 9.20547 24.6246 9.00313 24.3352 8.95859L16.65 7.78437L13.2066 0.449219C13.0777 0.175 12.8019 0 12.4992 0C12.1965 0 11.9211 0.175 11.7918 0.449219L8.34843 7.78437L0.663278 8.95898C0.373825 9.00313 0.13359 9.20586 0.0402309 9.48359C-0.0527379 9.76094 0.017184 10.0672 0.221871 10.277L5.80547 16.0023L4.48593 24.0898C4.4375 24.3852 4.56211 24.6824 4.80703 24.8543C4.9414 24.9492 5.09882 24.9973 5.25664 24.9973C5.38632 24.9973 5.51679 24.9645 5.63476 24.8996L12.4988 21.1031L19.3629 24.8996C19.4809 24.9645 19.6113 24.9973 19.741 24.9973C19.8988 24.9973 20.0566 24.9492 20.1906 24.8543C20.4355 24.6824 20.5602 24.3852 20.5117 24.0898L19.1922 16.0023L24.7758 10.277C24.9809 10.0668 25.0512 9.76055 24.9582 9.4832Z" fill="#FFD600"/>
</g>
<path d="M13.8761 19H12.8121V9.928L10.3481 11.384L9.8721 10.572L12.8401 8.794H13.8761V19Z" fill="black"/>
<defs>
<clipPath id="clip0_144_620">
<rect width="25" height="25" fill="white"/>
</clipPath>
</defs>
</svg>
