<svg width="28" height="28" viewBox="0 0 28 28" fill="none" xmlns="http://www.w3.org/2000/svg">
<g clip-path="url(#clip0_173_77)">
<path d="M14 0C11.2311 0 8.52431 0.821086 6.22202 2.35943C3.91973 3.89777 2.12532 6.08427 1.06569 8.64243C0.006066 11.2006 -0.271181 14.0155 0.269012 16.7313C0.809205 19.447 2.14258 21.9416 4.10051 23.8995C6.05845 25.8574 8.55301 27.1908 11.2687 27.731C13.9845 28.2712 16.7994 27.9939 19.3576 26.9343C21.9157 25.8747 24.1022 24.0803 25.6406 21.778C27.1789 19.4757 28 16.7689 28 14C27.996 10.2882 26.5197 6.72958 23.8951 4.10494C21.2704 1.4803 17.7118 0.0040146 14 0ZM25.6667 14C25.6652 14.7441 25.5925 15.4864 25.4497 16.2167L23.1957 15.54C23.3792 14.5215 23.3792 13.4785 23.1957 12.46L25.4497 11.7833C25.5925 12.5136 25.6652 13.2559 25.6667 14ZM24.78 9.548L22.5283 10.2235C21.5849 8.10756 19.8924 6.41513 17.7765 5.47167L18.452 3.22C21.3144 4.4106 23.5894 6.68557 24.78 9.548ZM14 21C12.6155 21 11.2622 20.5895 10.111 19.8203C8.95987 19.0511 8.06266 17.9579 7.53285 16.6788C7.00304 15.3997 6.86441 13.9922 7.13451 12.6344C7.40461 11.2765 8.07129 10.0292 9.05026 9.05025C10.0292 8.07129 11.2765 7.4046 12.6344 7.1345C13.9922 6.86441 15.3997 7.00303 16.6788 7.53284C17.9579 8.06266 19.0511 8.95986 19.8203 10.111C20.5895 11.2622 21 12.6155 21 14C20.9982 15.8559 20.2601 17.6353 18.9477 18.9477C17.6354 20.2601 15.856 20.9981 14 21ZM16.2167 2.55033L15.54 4.80433C14.5215 4.62078 13.4785 4.62078 12.46 4.80433L11.7833 2.55033C13.247 2.26108 14.753 2.26108 16.2167 2.55033ZM9.54801 3.22L10.2235 5.47167C8.10757 6.41513 6.41513 8.10756 5.47167 10.2235L3.22001 9.548C4.4106 6.68557 6.68557 4.4106 9.54801 3.22ZM2.33334 14C2.33482 13.2559 2.40748 12.5136 2.55034 11.7833L4.80434 12.46C4.62078 13.4785 4.62078 14.5215 4.80434 15.54L2.55034 16.2167C2.40748 15.4864 2.33482 14.7441 2.33334 14ZM3.22001 18.452L5.47167 17.7765C6.41513 19.8924 8.10757 21.5849 10.2235 22.5283L9.54801 24.78C6.68557 23.5894 4.4106 21.3144 3.22001 18.452ZM11.7833 25.452L12.46 23.198C13.4785 23.3816 14.5215 23.3816 15.54 23.198L16.2167 25.452C14.753 25.7413 13.247 25.7413 11.7833 25.452ZM18.452 24.7812L17.7765 22.5307C19.8924 21.5872 21.5849 19.8948 22.5283 17.7788L24.78 18.4543C23.5892 21.3158 21.3141 23.5896 18.452 24.7788V24.7812ZM17.0695 12.7073C17.349 13.0804 17.5 13.5339 17.5 14C17.5 14.4661 17.349 14.9196 17.0695 15.2927L14.861 18.2362C14.7608 18.3699 14.6309 18.4785 14.4814 18.5533C14.332 18.6281 14.1671 18.6671 14 18.6671C13.8329 18.6671 13.6681 18.6281 13.5186 18.5533C13.3692 18.4785 13.2392 18.3699 13.139 18.2362L10.9305 15.2927C10.6511 14.9196 10.5 14.4661 10.5 14C10.5 13.5339 10.6511 13.0804 10.9305 12.7073L13.139 9.76383C13.2392 9.63006 13.3692 9.52147 13.5186 9.44668C13.6681 9.37189 13.8329 9.33294 14 9.33294C14.1671 9.33294 14.332 9.37189 14.4814 9.44668C14.6309 9.52147 14.7608 9.63006 14.861 9.76383L17.0695 12.7073Z" fill="#FFD762"/>
</g>
<defs>
<clipPath id="clip0_173_77">
<rect width="28" height="28" fill="white"/>
</clipPath>
</defs>
</svg>
