<svg width="30" height="30" viewBox="0 0 30 30" fill="none" xmlns="http://www.w3.org/2000/svg">
<path d="M15 0C6.73333 0 0 6.73333 0 15C0 23.2667 6.73333 30 15 30C23.2667 30 30 23.2667 30 15C30 6.73333 23.2667 0 15 0ZM15 27.5C8.1 27.5 2.5 21.9 2.5 15C2.5 8.1 8.1 2.5 15 2.5C21.9 2.5 27.5 8.1 27.5 15C27.5 21.9 21.9 27.5 15 27.5ZM18.8333 7.83333C19.85 8.85 20.4167 10.2167 20.4167 11.6667C20.4167 13.1167 19.85 14.4667 18.8333 15.5C18.1167 16.2167 17.2167 16.7167 16.25 16.9333V17.5C16.25 18.1833 15.6833 18.75 15 18.75C14.3167 18.75 13.75 18.1833 13.75 17.5V15.8333C13.75 15.15 14.3167 14.5833 15 14.5833C15.7833 14.5833 16.5167 14.2833 17.0667 13.7333C17.6167 13.1833 17.9167 12.45 17.9167 11.6667C17.9167 10.8833 17.6167 10.15 17.0667 9.6C15.9667 8.5 14.05 8.5 12.95 9.6C12.4 10.15 12.1 10.8833 12.1 11.6667C12.1 12.35 11.5333 12.9167 10.85 12.9167C10.1667 12.9167 9.6 12.35 9.6 11.6667C9.6 10.2167 10.1667 8.86667 11.1833 7.83333C13.2333 5.78333 16.8 5.78333 18.85 7.83333H18.8333ZM16.6667 22.0833C16.6667 23 15.9167 23.75 15 23.75C14.0833 23.75 13.3333 23 13.3333 22.0833C13.3333 21.1667 14.0833 20.4167 15 20.4167C15.9167 20.4167 16.6667 21.1667 16.6667 22.0833Z" fill="#F8D05F"/>
</svg>
