<svg width="27" height="25" viewBox="0 0 27 25" fill="none" xmlns="http://www.w3.org/2000/svg">
<g clip-path="url(#clip0_301_91)">
<path d="M26.9584 9.4832C26.8655 9.20547 26.6248 9.00313 26.3354 8.95859L18.6502 7.78437L15.2069 0.449219C15.078 0.175 14.8022 0 14.4995 0C14.1967 0 13.9213 0.175 13.792 0.449219L10.3487 7.78437L2.66352 8.95898C2.37407 9.00313 2.13383 9.20586 2.04048 9.48359C1.94751 9.76094 2.01743 10.0672 2.22212 10.277L7.80571 16.0023L6.48618 24.0898C6.43774 24.3852 6.56235 24.6824 6.80727 24.8543C6.94165 24.9492 7.09907 24.9973 7.25688 24.9973C7.38657 24.9973 7.51704 24.9645 7.63501 24.8996L14.4991 21.1031L21.3631 24.8996C21.4811 24.9645 21.6116 24.9973 21.7413 24.9973C21.8991 24.9973 22.0569 24.9492 22.1909 24.8543C22.4358 24.6824 22.5604 24.3852 22.512 24.0898L21.1924 16.0023L26.776 10.277C26.9811 10.0668 27.0514 9.76055 26.9584 9.4832Z" fill="#9E69F5"/>
</g>
<path d="M15.7975 16.55V19H14.7615V16.55H9.45548V15.374L14.4535 8.794H15.7975V15.626H17.5195V16.55H15.7975ZM14.7615 9.9L10.4075 15.626H14.7615V9.9Z" fill="black"/>
<defs>
<clipPath id="clip0_301_91">
<rect width="25" height="25" fill="white" transform="translate(2)"/>
</clipPath>
</defs>
</svg>
