<svg width="27" height="25" viewBox="0 0 27 25" fill="none" xmlns="http://www.w3.org/2000/svg">
<g clip-path="url(#clip0_301_71)">
<path d="M26.9584 9.4832C26.8655 9.20547 26.6248 9.00313 26.3354 8.95859L18.6502 7.78437L15.2069 0.449219C15.078 0.175 14.8022 0 14.4995 0C14.1967 0 13.9213 0.175 13.792 0.449219L10.3487 7.78437L2.66352 8.95898C2.37407 9.00313 2.13383 9.20586 2.04048 9.48359C1.94751 9.76094 2.01743 10.0672 2.22212 10.277L7.80571 16.0023L6.48618 24.0898C6.43774 24.3852 6.56235 24.6824 6.80727 24.8543C6.94165 24.9492 7.09907 24.9973 7.25688 24.9973C7.38657 24.9973 7.51704 24.9645 7.63501 24.8996L14.4991 21.1031L21.3631 24.8996C21.4811 24.9645 21.6116 24.9973 21.7413 24.9973C21.8991 24.9973 22.0569 24.9492 22.1909 24.8543C22.4358 24.6824 22.5604 24.3852 22.512 24.0898L21.1924 16.0023L26.776 10.277C26.9811 10.0668 27.0514 9.76055 26.9584 9.4832Z" fill="#C4C4C4"/>
</g>
<path d="M13.4549 19.098C12.4282 19.098 11.5929 18.79 10.9489 18.174C10.3235 17.5767 9.96888 16.8953 9.88488 16.13L10.9209 15.934C10.9769 16.5127 11.2335 17.0213 11.6909 17.46C12.1575 17.8987 12.7455 18.118 13.4549 18.118C13.7069 18.118 13.9635 18.076 14.2249 17.992C14.4955 17.908 14.7569 17.7867 15.0089 17.628C15.2702 17.4693 15.4802 17.2407 15.6389 16.942C15.8069 16.6433 15.8909 16.3027 15.8909 15.92C15.8909 15.332 15.6669 14.856 15.2189 14.492C14.7802 14.1373 14.1969 13.96 13.4689 13.96C13.1142 13.96 12.7969 14.0113 12.5169 14.114L12.0129 13.26L15.3589 9.774H10.1229V8.794H16.7309V9.732L13.5669 12.98C14.4069 12.952 15.1395 13.162 15.7649 13.61C16.5675 14.1607 16.9689 14.9167 16.9689 15.878C16.9689 16.522 16.8102 17.0867 16.4929 17.572C16.1849 18.0573 15.7602 18.4353 15.2189 18.706C14.6962 18.9673 14.1082 19.098 13.4549 19.098Z" fill="black"/>
<defs>
<clipPath id="clip0_301_71">
<rect width="25" height="25" fill="white" transform="translate(2)"/>
</clipPath>
</defs>
</svg>
