<svg width="27" height="25" viewBox="0 0 27 25" fill="none" xmlns="http://www.w3.org/2000/svg">
<g clip-path="url(#clip0_301_51)">
<path d="M26.9584 9.4832C26.8655 9.20547 26.6248 9.00313 26.3354 8.95859L18.6502 7.78437L15.2069 0.449219C15.078 0.175 14.8022 0 14.4995 0C14.1967 0 13.9213 0.175 13.792 0.449219L10.3487 7.78437L2.66352 8.95898C2.37407 9.00313 2.13383 9.20586 2.04048 9.48359C1.94751 9.76094 2.01743 10.0672 2.22212 10.277L7.80571 16.0023L6.48618 24.0898C6.43774 24.3852 6.56235 24.6824 6.80727 24.8543C6.94165 24.9492 7.09907 24.9973 7.25688 24.9973C7.38657 24.9973 7.51704 24.9645 7.63501 24.8996L14.4991 21.1031L21.3631 24.8996C21.4811 24.9645 21.6116 24.9973 21.7413 24.9973C21.8991 24.9973 22.0569 24.9492 22.1909 24.8543C22.4358 24.6824 22.5604 24.3852 22.512 24.0898L21.1924 16.0023L26.776 10.277C26.9811 10.0668 27.0514 9.76055 26.9584 9.4832Z" fill="#BF9058"/>
</g>
<path d="M16.9181 18H10.0301V17.678C10.0301 16.2687 10.8187 15.074 12.3961 14.094L13.9361 13.142C14.1974 12.9927 14.4354 12.834 14.6501 12.666C14.7714 12.5727 14.9534 12.4047 15.1961 12.162C15.5507 11.7607 15.7281 11.28 15.7281 10.72C15.7281 10.188 15.5134 9.712 15.0841 9.292C14.6547 8.88133 14.1227 8.676 13.4881 8.676C12.9747 8.676 12.5361 8.802 12.1721 9.054C11.8267 9.306 11.5654 9.614 11.3881 9.978C11.2761 10.2767 11.2061 10.6127 11.1781 10.986L10.1141 10.832C10.1141 10.384 10.2214 9.94533 10.4361 9.516C10.6601 9.07733 10.9727 8.69933 11.3741 8.382C11.9434 7.91533 12.6574 7.682 13.5161 7.682C14.4494 7.682 15.2427 7.98533 15.8961 8.592C16.5214 9.19867 16.8341 9.89867 16.8341 10.692C16.8341 11.364 16.6567 11.9427 16.3021 12.428C15.9381 12.9227 15.4014 13.3893 14.6921 13.828L13.0821 14.836C11.9527 15.536 11.3694 16.264 11.3321 17.02H16.9181V18Z" fill="black"/>
<defs>
<clipPath id="clip0_301_51">
<rect width="25" height="25" fill="white" transform="translate(2)"/>
</clipPath>
</defs>
</svg>
