<svg width="27" height="25" viewBox="0 0 27 25" fill="none" xmlns="http://www.w3.org/2000/svg">
<g clip-path="url(#clip0_301_111)">
<path d="M26.9584 9.4832C26.8655 9.20547 26.6248 9.00313 26.3354 8.95859L18.6502 7.78437L15.2069 0.449219C15.078 0.175 14.8022 0 14.4995 0C14.1967 0 13.9213 0.175 13.792 0.449219L10.3487 7.78437L2.66352 8.95898C2.37407 9.00313 2.13383 9.20586 2.04048 9.48359C1.94751 9.76094 2.01743 10.0672 2.22212 10.277L7.80571 16.0023L6.48618 24.0898C6.43774 24.3852 6.56235 24.6824 6.80727 24.8543C6.94165 24.9492 7.09907 24.9973 7.25688 24.9973C7.38657 24.9973 7.51704 24.9645 7.63501 24.8996L14.4991 21.1031L21.3631 24.8996C21.4811 24.9645 21.6116 24.9973 21.7413 24.9973C21.8991 24.9973 22.0569 24.9492 22.1909 24.8543C22.4358 24.6824 22.5604 24.3852 22.512 24.0898L21.1924 16.0023L26.776 10.277C26.9811 10.0668 27.0514 9.76055 26.9584 9.4832Z" fill="#4FBC85"/>
</g>
<path d="M16.5743 9.802H12.2623L11.4783 13.19C11.7583 12.9287 12.1036 12.742 12.5143 12.63C12.9156 12.518 13.2796 12.462 13.6063 12.462C14.5863 12.462 15.3889 12.7607 16.0143 13.358C16.6396 13.9553 16.9523 14.7533 16.9523 15.752C16.9523 16.8347 16.5789 17.67 15.8323 18.258C15.1136 18.818 14.2969 19.098 13.3823 19.098C12.1596 19.098 11.2029 18.6593 10.5123 17.782C10.1669 17.3433 9.96159 16.8533 9.89626 16.312L10.9323 16.074C11.0349 16.69 11.3103 17.1753 11.7583 17.53C12.2063 17.9127 12.7616 18.104 13.4243 18.104C13.7976 18.104 14.1616 18.034 14.5163 17.894C14.8709 17.7447 15.1883 17.488 15.4683 17.124C15.7483 16.7507 15.8883 16.3027 15.8883 15.78C15.8883 14.9587 15.6269 14.352 15.1043 13.96C14.6189 13.5867 14.0589 13.4 13.4243 13.4C13.0603 13.4 12.6683 13.4933 12.2483 13.68C11.8563 13.876 11.5296 14.1327 11.2683 14.45L10.2743 14.058L11.4783 8.794H16.5743V9.802Z" fill="black"/>
<defs>
<clipPath id="clip0_301_111">
<rect width="25" height="25" fill="white" transform="translate(2)"/>
</clipPath>
</defs>
</svg>
