<svg width="26" height="25" viewBox="0 0 26 25" fill="none" xmlns="http://www.w3.org/2000/svg">
<g clip-path="url(#clip0_144_583)">
<path d="M25.3498 9.4832C25.2568 9.20547 25.0162 9.00313 24.7268 8.95859L17.0416 7.78437L13.5982 0.449219C13.4693 0.175 13.1936 0 12.8908 0C12.5881 0 12.3127 0.175 12.1834 0.449219L8.74004 7.78437L1.05488 8.95898C0.765426 9.00313 0.525192 9.20586 0.431832 9.48359C0.338864 9.76094 0.408786 10.0672 0.613473 10.277L6.19707 16.0023L4.87754 24.0898C4.8291 24.3852 4.95371 24.6824 5.19863 24.8543C5.333 24.9492 5.49043 24.9973 5.64824 24.9973C5.77793 24.9973 5.90839 24.9645 6.02636 24.8996L12.8904 21.1031L19.7545 24.8996C19.8725 24.9645 20.0029 24.9973 20.1326 24.9973C20.2904 24.9973 20.4482 24.9492 20.5822 24.8543C20.8271 24.6824 20.9518 24.3852 20.9033 24.0898L19.5838 16.0023L25.1674 10.277C25.3725 10.0668 25.4428 9.76055 25.3498 9.4832Z" fill="#9E69F5"/>
</g>
<path d="M15.1891 16.55V19H14.1531V16.55H8.84708V15.374L13.8451 8.794H15.1891V15.626H16.9111V16.55H15.1891ZM14.1531 9.9L9.79908 15.626H14.1531V9.9Z" fill="black"/>
<defs>
<clipPath id="clip0_144_583">
<rect width="25" height="25" fill="white" transform="translate(0.391602)"/>
</clipPath>
</defs>
</svg>
