<svg width="25" height="25" viewBox="0 0 25 25" fill="none" xmlns="http://www.w3.org/2000/svg">
<circle cx="12.5" cy="12.5" r="12.5" fill="#497EEA"/>
<g clip-path="url(#clip0_302_1753)">
<path d="M13 6.66948C10.0574 6.67123 7.67216 9.05692 7.67216 12C7.67216 13.0517 7.97666 14.0322 8.50209 14.8582L8.48941 14.8367L7.97666 17.0238L10.1637 16.511C10.9692 17.0255 11.9513 17.3309 13.0044 17.3309C15.9483 17.3309 18.3349 14.9444 18.3349 12.0004C18.3349 9.05648 15.9483 6.66992 13.0044 6.66992C13.0027 6.66992 13.0013 6.66992 12.9996 6.66992L13 6.66948ZM9.95547 17.1135L9.07522 17.3187L9.21478 17.9172L9.86272 17.7667C10.3107 18.016 10.83 18.2234 11.3765 18.3617L11.4215 18.3713L11.569 17.775C10.9591 17.6201 10.4232 17.3922 9.93359 17.0947L9.95984 17.1095L9.95547 17.1135ZM7.08503 15.7809L7.68353 15.9204L7.88872 15.0402C7.60741 14.5755 7.38034 14.0379 7.23597 13.4669L7.22722 13.4262L6.63134 13.5737C6.77922 14.1652 6.98659 14.6845 7.25303 15.1662L7.23597 15.1329L7.08503 15.7809ZM8.52966 17.4438L7.25959 17.7409L7.55578 16.4708L6.95728 16.3304L6.66109 17.6004C6.65059 17.6424 6.64491 17.691 6.64491 17.7409C6.64491 18.0804 6.92009 18.356 7.26003 18.356C7.30991 18.356 7.35803 18.3499 7.40441 18.3389L7.40003 18.3398L8.66878 18.0489L8.52966 17.4438ZM12.1093 6.12042C12.377 6.07798 12.6855 6.05392 13 6.05392C13.3146 6.05392 13.623 6.07798 13.924 6.12479L13.8903 6.12042L13.984 5.51229C13.6887 5.46548 13.3478 5.43835 13.0009 5.43835C12.654 5.43835 12.3132 5.46504 11.9807 5.5171L12.0178 5.51229L12.1093 6.12042ZM18.6175 8.60848L18.0903 8.92392C18.3817 9.39773 18.6158 9.94635 18.7632 10.5291L18.772 10.5702L19.3683 10.4228C19.1959 9.73548 18.9378 9.13085 18.6009 8.58004L18.6175 8.60848ZM8.21422 8.47285C8.57384 7.98854 8.98947 7.57292 9.45803 7.22467L9.47378 7.21329L9.10453 6.71804C8.57166 7.11398 8.11447 7.57117 7.73122 8.08654L7.71897 8.10404L8.21422 8.47285ZM16.5263 7.21329C17.0106 7.57292 17.4262 7.98854 17.7745 8.4571L17.7858 8.47285L18.2811 8.10404C17.8852 7.57117 17.428 7.11398 16.9126 6.73073L16.8951 6.71848L16.5263 7.21329ZM17.7858 15.5275C17.4262 16.0114 17.0106 16.4266 16.542 16.7749L16.5263 16.7862L16.8916 17.2815C17.4258 16.8855 17.8843 16.4284 18.2688 15.913L18.2811 15.8955L17.7858 15.5275ZM13.8908 17.88C13.623 17.9224 13.3146 17.9465 13 17.9465C12.6855 17.9465 12.377 17.9224 12.076 17.8756L12.1097 17.88L12.017 18.4881C12.3123 18.5349 12.6531 18.562 13 18.562C13.347 18.562 13.6878 18.5354 14.0203 18.4833L13.9831 18.4881L13.8908 17.88ZM19.3687 13.5745L18.7728 13.4271C18.6162 14.0519 18.3822 14.6009 18.0759 15.1014L18.0908 15.0756L18.618 15.3932C18.9391 14.87 19.1972 14.264 19.3595 13.62L19.3692 13.575L19.3687 13.5745ZM18.9457 12C18.9457 12.0013 18.9457 12.0026 18.9457 12.0039C18.9457 12.3172 18.9216 12.6247 18.8748 12.9244L18.8792 12.8912L19.4873 12.983C19.5341 12.6877 19.5612 12.3469 19.5612 12C19.5612 11.653 19.5345 11.3122 19.4825 10.9802L19.4873 11.0174L18.8792 11.1097C18.9216 11.3765 18.9457 11.6837 18.9457 11.9969C18.9457 11.9982 18.9457 11.9995 18.9457 12.0009V12ZM16.3915 17.617L16.0757 17.0899C15.6018 17.3812 15.0532 17.6153 14.4705 17.7627L14.4293 17.7715L14.5768 18.3678C15.2645 18.1954 15.8692 17.9373 16.42 17.6004L16.3915 17.6166V17.617ZM7.05441 11.9995C7.05441 11.9982 7.05441 11.9969 7.05441 11.9956C7.05441 11.6824 7.07847 11.3748 7.12528 11.0751L7.12091 11.1084L6.51278 11.0165C6.46597 11.3118 6.43884 11.6526 6.43884 11.9995C6.43884 12.3465 6.46553 12.6873 6.51716 13.0194L6.51234 12.9822L7.12047 12.8899C7.07803 12.623 7.05397 12.3159 7.05397 12.0026C7.05397 12.0017 7.05397 12.0004 7.05397 11.9995H7.05441ZM7.38253 8.60848C7.06141 9.13129 6.80372 9.73635 6.64097 10.3795L6.63134 10.4245L7.22722 10.572C7.38384 9.94723 7.61834 9.39817 7.92503 8.89767L7.91016 8.92348L7.38253 8.60848ZM14.5746 5.63085L14.4272 6.22673C15.0519 6.38335 15.601 6.61742 16.1015 6.92367L16.0757 6.90879L16.3933 6.3816C15.87 6.06048 15.2641 5.80235 14.6201 5.64004L14.575 5.63042L14.5746 5.63085ZM11.4255 5.63085L11.5729 6.22673C10.9482 6.38335 10.3991 6.61742 9.89859 6.92367L9.92441 6.90879L9.60853 6.3816C10.1313 6.06048 10.7368 5.80279 11.38 5.64004L11.425 5.63042L11.4255 5.63085Z" fill="white"/>
</g>
<defs>
<clipPath id="clip0_302_1753">
<rect width="14" height="14" fill="white" transform="translate(6 5)"/>
</clipPath>
</defs>
</svg>
