<svg width="146" height="22" viewBox="0 0 146 22" fill="none" xmlns="http://www.w3.org/2000/svg">
<g clip-path="url(#clip0_301_57)">
<rect width="46" height="22" rx="2" fill="#BF9058"/>
<path d="M14.2438 5.794H15.7838V16H14.7198V7.25L10.9258 16H9.95982L6.19382 7.32V16H5.12982V5.794H6.65582L10.4638 14.544L14.2438 5.794ZM21.452 16.098C20.4626 16.098 19.632 15.7993 18.96 15.202C18.3066 14.6327 17.9333 13.97 17.84 13.214L18.848 12.934C18.96 13.5313 19.268 14.04 19.772 14.46C20.2666 14.88 20.8266 15.09 21.452 15.09C22.0773 15.09 22.6 14.9407 23.02 14.642C23.496 14.3153 23.734 13.844 23.734 13.228C23.734 12.5933 23.4493 12.108 22.88 11.772C22.6186 11.6133 22.2966 11.4967 21.914 11.422L20.57 11.156C20.2993 11.1 20.0006 11.002 19.674 10.862C19.338 10.7033 19.058 10.512 18.834 10.288C18.358 9.82133 18.12 9.23333 18.12 8.524C18.12 7.964 18.274 7.46467 18.582 7.026C18.8806 6.59667 19.2773 6.26067 19.772 6.018C20.2573 5.794 20.7846 5.682 21.354 5.682C22.3526 5.682 23.132 5.92933 23.692 6.424C24.2613 6.91867 24.6066 7.488 24.728 8.132L23.748 8.44C23.6453 7.98267 23.3933 7.57667 22.992 7.222C22.6 6.858 22.0493 6.676 21.34 6.676C20.78 6.65733 20.2806 6.82533 19.842 7.18C19.4033 7.53467 19.1886 7.96867 19.198 8.482C19.198 8.88333 19.324 9.22867 19.576 9.518C19.828 9.80733 20.1966 9.99867 20.682 10.092L21.97 10.344C22.8566 10.512 23.5193 10.8107 23.958 11.24C24.2566 11.5107 24.4806 11.8233 24.63 12.178C24.77 12.5233 24.84 12.836 24.84 13.116C24.8493 14.0027 24.5273 14.726 23.874 15.286C23.2206 15.846 22.4133 16.1167 21.452 16.098ZM28.0555 6.802V10.47H32.8575V11.45H28.0555V16H26.9775V5.794H33.3055V6.802H28.0555ZM38.595 6.802V16H37.531V6.802H34.115V5.794H42.011V6.802H38.595Z" fill="black"/>
</g>
<g clip-path="url(#clip1_301_57)">
<rect x="50" width="46" height="22" rx="2" fill="#BF9058"/>
<path d="M64.2438 5.794H65.7838V16H64.7198V7.25L60.9258 16H59.9598L56.1938 7.32V16H55.1298V5.794H56.6558L60.4638 14.544L64.2438 5.794ZM71.452 16.098C70.4626 16.098 69.632 15.7993 68.96 15.202C68.3066 14.6327 67.9333 13.97 67.84 13.214L68.848 12.934C68.96 13.5313 69.268 14.04 69.772 14.46C70.2666 14.88 70.8266 15.09 71.452 15.09C72.0773 15.09 72.6 14.9407 73.02 14.642C73.496 14.3153 73.734 13.844 73.734 13.228C73.734 12.5933 73.4493 12.108 72.88 11.772C72.6186 11.6133 72.2966 11.4967 71.914 11.422L70.57 11.156C70.2993 11.1 70.0006 11.002 69.674 10.862C69.338 10.7033 69.058 10.512 68.834 10.288C68.358 9.82133 68.12 9.23333 68.12 8.524C68.12 7.964 68.274 7.46467 68.582 7.026C68.8806 6.59667 69.2773 6.26067 69.772 6.018C70.2573 5.794 70.7846 5.682 71.354 5.682C72.3526 5.682 73.132 5.92933 73.692 6.424C74.2613 6.91867 74.6066 7.488 74.728 8.132L73.748 8.44C73.6453 7.98267 73.3933 7.57667 72.992 7.222C72.6 6.858 72.0493 6.676 71.34 6.676C70.78 6.65733 70.2806 6.82533 69.842 7.18C69.4033 7.53467 69.1886 7.96867 69.198 8.482C69.198 8.88333 69.324 9.22867 69.576 9.518C69.828 9.80733 70.1966 9.99867 70.682 10.092L71.97 10.344C72.8566 10.512 73.5193 10.8107 73.958 11.24C74.2566 11.5107 74.4806 11.8233 74.63 12.178C74.77 12.5233 74.84 12.836 74.84 13.116C74.8493 14.0027 74.5273 14.726 73.874 15.286C73.2206 15.846 72.4133 16.1167 71.452 16.098ZM78.0555 6.802V10.47H82.8575V11.45H78.0555V16H76.9775V5.794H83.3055V6.802H78.0555ZM88.595 6.802V16H87.531V6.802H84.115V5.794H92.011V6.802H88.595Z" fill="black"/>
</g>
<g clip-path="url(#clip2_301_57)">
<rect x="100" width="46" height="22" rx="2" fill="#BF9058"/>
<path d="M114.244 5.794H115.784V16H114.72V7.25L110.926 16H109.96L106.194 7.32V16H105.13V5.794H106.656L110.464 14.544L114.244 5.794ZM121.452 16.098C120.463 16.098 119.632 15.7993 118.96 15.202C118.307 14.6327 117.933 13.97 117.84 13.214L118.848 12.934C118.96 13.5313 119.268 14.04 119.772 14.46C120.267 14.88 120.827 15.09 121.452 15.09C122.077 15.09 122.6 14.9407 123.02 14.642C123.496 14.3153 123.734 13.844 123.734 13.228C123.734 12.5933 123.449 12.108 122.88 11.772C122.619 11.6133 122.297 11.4967 121.914 11.422L120.57 11.156C120.299 11.1 120.001 11.002 119.674 10.862C119.338 10.7033 119.058 10.512 118.834 10.288C118.358 9.82133 118.12 9.23333 118.12 8.524C118.12 7.964 118.274 7.46467 118.582 7.026C118.881 6.59667 119.277 6.26067 119.772 6.018C120.257 5.794 120.785 5.682 121.354 5.682C122.353 5.682 123.132 5.92933 123.692 6.424C124.261 6.91867 124.607 7.488 124.728 8.132L123.748 8.44C123.645 7.98267 123.393 7.57667 122.992 7.222C122.6 6.858 122.049 6.676 121.34 6.676C120.78 6.65733 120.281 6.82533 119.842 7.18C119.403 7.53467 119.189 7.96867 119.198 8.482C119.198 8.88333 119.324 9.22867 119.576 9.518C119.828 9.80733 120.197 9.99867 120.682 10.092L121.97 10.344C122.857 10.512 123.519 10.8107 123.958 11.24C124.257 11.5107 124.481 11.8233 124.63 12.178C124.77 12.5233 124.84 12.836 124.84 13.116C124.849 14.0027 124.527 14.726 123.874 15.286C123.221 15.846 122.413 16.1167 121.452 16.098ZM128.055 6.802V10.47H132.857V11.45H128.055V16H126.977V5.794H133.305V6.802H128.055ZM138.595 6.802V16H137.531V6.802H134.115V5.794H142.011V6.802H138.595Z" fill="black"/>
</g>
<defs>
<clipPath id="clip0_301_57">
<rect width="46" height="22" rx="2" fill="white"/>
</clipPath>
<clipPath id="clip1_301_57">
<rect x="50" width="46" height="22" rx="2" fill="white"/>
</clipPath>
<clipPath id="clip2_301_57">
<rect x="100" width="46" height="22" rx="2" fill="white"/>
</clipPath>
</defs>
</svg>
