<svg width="28" height="28" viewBox="0 0 28 28" fill="none" xmlns="http://www.w3.org/2000/svg">
<g clip-path="url(#clip0_173_63)">
<path d="M28.6778 24.3767L28.2534 23.9522C27.8649 23.5637 27.2569 23.5301 26.8264 23.8462L22.0426 19.0624C22.4068 18.4615 22.6636 17.7998 22.7963 17.1008C22.878 16.6712 22.7631 16.236 22.4816 15.9068C22.2051 15.5841 21.8036 15.4081 21.3777 15.4202C20.9365 15.4348 20.5433 15.6584 20.2963 15.9951L18.302 14.0008L27.2041 5.09813C27.2504 5.05189 27.2863 4.99679 27.3097 4.9361L28.9687 0.635589C29.0351 0.463277 28.994 0.268092 28.8632 0.137368C28.7325 0.00664267 28.5363 -0.0349441 28.365 0.0318136L24.0649 1.69085C24.0038 1.71422 23.9487 1.75061 23.9024 1.79641L15.0002 10.6991L6.09759 1.79641C6.05135 1.75066 5.99625 1.71422 5.93556 1.69085L1.63505 0.0318136C1.46318 -0.0349441 1.26756 0.00658794 1.13683 0.137368C1.00611 0.268092 0.965013 0.463277 1.03128 0.635589L2.69032 4.9361C2.71368 4.99679 2.74963 5.05189 2.79587 5.09813L11.6985 14.0008L9.70376 15.9951C9.45676 15.6584 9.0636 15.4348 8.62234 15.4202C8.19323 15.4072 7.79493 15.5841 7.51898 15.9068C7.23696 16.236 7.1221 16.6712 7.2038 17.1008C7.33594 17.7984 7.59274 18.4587 7.95838 19.0614L3.17365 23.8462C2.74312 23.5306 2.13563 23.5637 1.74668 23.9522L1.32271 24.3766C0.893605 24.8057 0.893605 25.5043 1.32271 25.9334L3.06723 27.6779C3.282 27.8927 3.56402 28.0001 3.8461 28.0001C4.12769 28.0001 4.40971 27.8927 4.62449 27.6779L5.04845 27.2539C5.4374 26.865 5.47012 26.2575 5.15494 25.827L9.92844 21.0535C10.5625 21.4462 11.2672 21.7193 12.0147 21.8566C12.096 21.8715 12.1772 21.8785 12.2585 21.8785C12.5778 21.8785 12.8897 21.7646 13.141 21.5517C13.4655 21.2757 13.6476 20.8732 13.6392 20.4455C13.6303 19.9683 13.38 19.5443 13.0032 19.2996L15.0003 17.3025L16.9974 19.2996C16.6201 19.5442 16.3699 19.9687 16.361 20.4478C16.3531 20.8732 16.5347 21.2757 16.8592 21.5516C17.1109 21.7645 17.4228 21.8785 17.7422 21.8785C17.823 21.8785 17.9047 21.8715 17.9859 21.8565C18.7335 21.7192 19.4381 21.4461 20.0717 21.0534L24.8452 25.8269C24.707 26.0146 24.6295 26.2383 24.6295 26.4755C24.6295 26.7697 24.744 27.0461 24.9517 27.2539L25.3757 27.6779C25.5905 27.8926 25.8725 28 26.1546 28C26.4362 28 26.7182 27.8926 26.9329 27.6779L28.6774 25.9338C28.8852 25.7256 29.0001 25.4491 29.0001 25.155C29 24.8609 28.8851 24.584 28.6778 24.3767ZM4.50624 25.1551L3.84599 24.4943L8.49435 19.8455L8.83756 20.1887L8.84177 20.1933C8.8427 20.1943 8.84412 20.1952 8.84505 20.1961L9.15509 20.5062L4.50624 25.1551ZM24.4931 2.52669L27.7183 1.28276L26.4739 4.50743L17.6417 13.3405L16.981 12.6798L25.1407 4.52045C25.3228 4.33791 25.3228 4.04232 25.1407 3.86021C24.9581 3.67761 24.6626 3.67761 24.4805 3.86021L16.3207 12.0195L15.6605 11.3592L24.4931 2.52669ZM12.023 18.9587C11.8302 18.8906 11.6481 18.8014 11.4725 18.6996C11.409 18.6618 11.346 18.6235 11.2848 18.5814C11.2362 18.5488 11.1877 18.5156 11.141 18.4801C11.0262 18.3923 10.9136 18.3004 10.8081 18.1972C10.7101 18.0977 10.6227 17.9912 10.5396 17.882C10.4971 17.8254 10.4579 17.7671 10.4196 17.7078C10.3883 17.6611 10.3589 17.613 10.3304 17.5649C10.2818 17.4809 10.2347 17.3959 10.1945 17.3076C10.1908 17.3001 10.188 17.2922 10.1847 17.2848C10.1371 17.1792 10.0946 17.0709 10.0592 16.9602L12.3589 14.661L14.3396 16.6422L12.023 18.9587ZM4.85973 4.52051C4.67713 4.33796 4.67713 4.04237 4.85973 3.86026C5.04183 3.67766 5.33743 3.67766 5.51997 3.86026L18.1399 16.4802C18.3225 16.6628 18.3225 16.9584 18.1399 17.1405C18.0489 17.232 17.9293 17.2773 17.8098 17.2773C17.6902 17.2773 17.5707 17.232 17.4797 17.1405L4.85973 4.52051ZM21.8787 16.9266C21.6933 17.9039 21.2241 18.7967 20.5153 19.5153L20.4952 19.5359C19.7743 20.2549 18.8236 20.7532 17.8169 20.9381C17.6492 20.9694 17.5232 20.8896 17.4639 20.8396C17.3537 20.7462 17.292 20.6094 17.2948 20.4632C17.2986 20.2437 17.4489 20.0579 17.652 20.0205C17.7552 20.0019 17.8547 19.9673 17.956 19.9402C17.9597 19.9393 17.963 19.9397 17.9667 19.9388C17.9733 19.9369 17.9789 19.9341 17.9854 19.9323C18.1413 19.8897 18.2941 19.8389 18.4444 19.7777C18.485 19.7613 18.5247 19.7427 18.5644 19.7254C18.6853 19.6712 18.8053 19.6161 18.9216 19.5503C19.0112 19.5007 19.0967 19.4428 19.1831 19.3864C19.2536 19.3397 19.3255 19.2977 19.3941 19.2463C19.5529 19.1286 19.706 19.0007 19.8508 18.8587L19.8555 18.8541C19.8559 18.8536 19.8564 18.8536 19.8569 18.8526C19.8658 18.8442 19.8723 18.834 19.8807 18.8251C20.0063 18.6953 20.1235 18.559 20.23 18.4147C20.3126 18.3045 20.3817 18.1873 20.4518 18.0705C20.4765 18.0294 20.5045 17.9911 20.5274 17.9491C20.6091 17.8015 20.6773 17.6484 20.7399 17.4924C20.745 17.4789 20.752 17.4658 20.7571 17.4523C20.8197 17.2897 20.8692 17.1236 20.9103 16.954C20.9122 16.9452 20.9159 16.9372 20.9178 16.9284C20.9187 16.926 20.9183 16.9232 20.9187 16.9204C20.9346 16.8528 20.9584 16.7883 20.9706 16.7197C21.0065 16.5147 21.1905 16.3606 21.4081 16.3536C21.4132 16.3531 21.4188 16.3531 21.424 16.3531C21.6066 16.3531 21.72 16.453 21.7718 16.5137C21.8684 16.6264 21.9072 16.7772 21.8787 16.9266ZM28.0171 25.2732L26.2726 27.0177C26.2072 27.0826 26.1008 27.0831 26.0363 27.0177L25.6119 26.5938C25.5693 26.5512 25.5633 26.5013 25.5633 26.4756C25.5633 26.4499 25.5694 26.4 25.6124 26.3575L25.8239 26.1455L27.1449 24.825L27.3569 24.6125C27.3895 24.5803 27.4325 24.5639 27.475 24.5639C27.518 24.5639 27.5605 24.5803 27.5931 24.6125L28.0171 25.037C28.0596 25.0795 28.0661 25.129 28.0661 25.1551C28.0661 25.1807 28.0596 25.2307 28.0171 25.2732Z" fill="#FFD762"/>
</g>
<defs>
<clipPath id="clip0_173_63">
<rect width="28" height="28" fill="white"/>
</clipPath>
</defs>
</svg>
