<svg width="25" height="25" viewBox="0 0 25 25" fill="none" xmlns="http://www.w3.org/2000/svg">
<circle cx="12.5" cy="12.5" r="12.5" fill="#7966F2"/>
<path fill-rule="evenodd" clip-rule="evenodd" d="M12.3564 7.64533C15.2969 8.09746 16.653 9.49578 17.0274 12.4574C17.0621 12.731 16.9603 13.1426 17.3506 13.1502C17.7585 13.158 17.6601 12.7524 17.6635 12.4786C17.6981 9.68915 15.2661 7.10336 12.4414 7.00795C12.2283 7.03861 11.7873 6.86095 11.7598 7.33868C11.7416 7.66067 12.1128 7.60782 12.3564 7.64533Z" fill="white"/>
<path fill-rule="evenodd" clip-rule="evenodd" d="M16.8942 15.6731C15.9073 14.9769 14.6664 13.6446 13.6994 15.1286C13.3767 15.6172 12.9249 15.6385 12.4525 15.4242C11.1503 14.8337 10.1448 13.924 9.55566 12.6003C8.861 10.9561 10.5617 11.265 10.5301 10.1187C10.4963 9.49472 8.98113 7.40921 8.38277 7.1891C8.13516 7.09799 7.88857 7.10395 7.63666 7.1886C6.23365 7.66036 5.65253 8.81425 6.20907 10.1805C7.86944 14.2567 10.7913 17.0944 14.8135 18.8264C15.0429 18.925 15.2976 18.9644 15.4266 18.9999C16.3424 19.0091 17.415 18.1268 17.7248 17.2512C18.0231 16.4088 17.3928 16.0745 16.8942 15.6731Z" fill="white"/>
<path fill-rule="evenodd" clip-rule="evenodd" d="M12.9343 8.45501C12.6514 8.42093 12.278 8.28762 12.212 8.68019C12.1429 9.09215 12.559 9.05033 12.8265 9.11014C14.6426 9.51601 15.275 10.1771 15.574 11.9785C15.6177 12.2412 15.5309 12.65 15.9772 12.5822C16.308 12.5317 16.1886 12.1814 16.2162 11.9767C16.2309 10.2472 14.7488 8.67297 12.9343 8.45501Z" fill="white"/>
<path fill-rule="evenodd" clip-rule="evenodd" d="M13.1061 9.86237C12.9173 9.86706 12.732 9.88746 12.6626 10.0892C12.5584 10.3908 12.7776 10.4626 13.0008 10.4985C13.7457 10.6181 14.1378 11.0574 14.2123 11.8004C14.2324 12.002 14.3604 12.1654 14.5552 12.1424C14.8251 12.1102 14.8496 11.8699 14.8412 11.6417C14.8545 10.807 13.9111 9.84235 13.1061 9.86237Z" fill="white"/>
</svg>
