<svg width="27" height="26" viewBox="0 0 27 26" fill="none" xmlns="http://www.w3.org/2000/svg">
<circle cx="13.5" cy="13" r="12.5" fill="white"/>
<path d="M13.5 0C6.32021 0 0.5 5.82021 0.5 13C0.5 20.1798 6.32021 26 13.5 26C20.6798 26 26.5 20.1798 26.5 13C26.5 5.82021 20.6798 0 13.5 0ZM18.4996 14.667C18.4996 14.667 19.6493 15.8018 19.9323 16.3285C19.9404 16.3394 19.9445 16.3502 19.9472 16.3556C20.0623 16.5493 20.0894 16.6996 20.0325 16.812C19.9377 16.9989 19.6127 17.0909 19.5017 17.0991H17.4704C17.3296 17.0991 17.0344 17.0625 16.6769 16.816C16.402 16.6238 16.1311 16.3082 15.8671 16.0008C15.473 15.5431 15.1318 15.1477 14.7878 15.1477C14.7441 15.1476 14.7007 15.1545 14.6592 15.168C14.3992 15.252 14.066 15.623 14.066 16.6116C14.066 16.9203 13.8223 17.0977 13.6503 17.0977H12.72C12.4031 17.0977 10.7524 16.9867 9.2899 15.4443C7.49969 13.5552 5.88823 9.76625 5.87469 9.73104C5.77312 9.48594 5.98302 9.35458 6.21187 9.35458H8.26344C8.53698 9.35458 8.62635 9.52115 8.68865 9.66875C8.76177 9.84073 9.0299 10.5246 9.47 11.2937C10.1836 12.5477 10.621 13.0569 10.9718 13.0569C11.0375 13.0561 11.1021 13.0394 11.16 13.0081C11.6177 12.7535 11.5324 11.1218 11.5121 10.7832C11.5121 10.7196 11.5107 10.0533 11.2765 9.73375C11.1085 9.50219 10.8228 9.41417 10.6495 9.38167C10.7196 9.28486 10.8121 9.20636 10.919 9.15281C11.2331 8.99573 11.7992 8.97271 12.3611 8.97271H12.674C13.2833 8.98083 13.4404 9.0201 13.6611 9.07562C14.108 9.1826 14.1175 9.47104 14.0782 10.4582C14.066 10.7385 14.0539 11.0554 14.0539 11.4292C14.0539 11.5104 14.0498 11.5971 14.0498 11.6892C14.0363 12.1916 14.02 12.7617 14.3748 12.9959C14.4211 13.025 14.4745 13.0404 14.5292 13.0406C14.6524 13.0406 15.0234 13.0406 16.0282 11.3168C16.3381 10.7619 16.6074 10.1853 16.834 9.59156C16.8543 9.55635 16.9139 9.44802 16.9843 9.40604C17.0362 9.37955 17.0939 9.36607 17.1522 9.36677H19.564C19.8267 9.36677 20.0068 9.40604 20.0406 9.5076C20.1002 9.66875 20.0298 10.1603 18.9289 11.6512L18.4373 12.2999C17.4393 13.608 17.4393 13.6744 18.4996 14.667Z" fill="#2787F5"/>
</svg>
