<svg width="25" height="25" viewBox="0 0 25 25" fill="none" xmlns="http://www.w3.org/2000/svg">
<circle cx="12.5" cy="12.5" r="12.5" fill="#12D810"/>
<g clip-path="url(#clip0_302_1721)">
<path d="M9.00933 9.33742C9.08551 8.73493 9.86851 7.91609 10.4899 8.00695L10.4889 8.00596C11.0937 8.12088 11.5724 9.16174 11.8423 9.62977C12.0336 9.96935 11.9094 10.3134 11.731 10.4586C11.4903 10.6526 11.114 10.9202 11.193 11.1889C11.3333 11.6667 13 13.3333 13.8197 13.8071C14.13 13.9865 14.355 13.5135 14.5471 13.2711C14.6867 13.0847 15.0311 12.9733 15.3699 13.1573C15.8759 13.452 16.3525 13.7945 16.7933 14.18C17.0135 14.364 17.0651 14.6359 16.9126 14.9233C16.6439 15.4295 15.8669 16.0971 15.3028 15.9614C14.3176 15.7245 10.3333 14.18 9.05355 9.70534C8.98158 9.49365 8.9997 9.41363 9.00933 9.33742Z" fill="white"/>
<path fill-rule="evenodd" clip-rule="evenodd" d="M13 19.3333C12.1842 19.3333 11.7329 19.2458 11 19L9.59625 19.7018C8.70971 20.1451 7.66663 19.5004 7.66663 18.5092V17C6.23099 15.6613 5.66663 14.1178 5.66663 12C5.66663 7.94987 8.94987 4.66663 13 4.66663C17.05 4.66663 20.3333 7.94987 20.3333 12C20.3333 16.05 17.05 19.3333 13 19.3333ZM8.99996 16.4202L8.57593 16.0248C7.46054 14.9848 6.99996 13.822 6.99996 12C6.99996 8.68625 9.68625 5.99996 13 5.99996C16.3137 5.99996 19 8.68625 19 12C19 15.3137 16.3137 18 13 18C12.3428 18 12.0346 17.9406 11.4239 17.7358L10.8989 17.5598L8.99996 18.5092V16.4202Z" fill="white"/>
</g>
<defs>
<clipPath id="clip0_302_1721">
<rect width="16" height="16" fill="white" transform="translate(5 4)"/>
</clipPath>
</defs>
</svg>
