<svg width="45" height="45" viewBox="0 0 45 45" fill="none" xmlns="http://www.w3.org/2000/svg">
<g clip-path="url(#clip0_102_819)" filter="url(#filter0_d_102_819)">
<g filter="url(#filter1_d_102_819)">
<path fill-rule="evenodd" clip-rule="evenodd" d="M22.5 0C32.7179 0 41 8.28208 41 18.5C41 28.7179 32.7179 37 22.5 37C12.2821 37 4 28.7179 4 18.5C4 8.28208 12.2821 0 22.5 0Z" fill="#FFD600"/>
</g>
<path fill-rule="evenodd" clip-rule="evenodd" d="M22.4999 10.36C25.3608 10.36 27.6799 12.6791 27.6799 15.54C27.6799 18.4008 25.3608 20.72 22.4999 20.72C19.6391 20.72 17.3199 18.4008 17.3199 15.54C17.3199 12.6791 19.6391 10.36 22.4999 10.36Z" fill="#1F0D15"/>
<path fill-rule="evenodd" clip-rule="evenodd" d="M22.5 23.6801C29.4472 23.6801 35.08 28.8601 35.08 28.8601C35.08 28.8601 29.4472 34.0401 22.5 34.0401C15.5529 34.0401 9.92004 28.8601 9.92004 28.8601C9.92004 28.8601 15.5529 23.6801 22.5 23.6801Z" fill="#1F0D15"/>
</g>
<defs>
<filter id="filter0_d_102_819" x="0" y="0" width="45" height="45" filterUnits="userSpaceOnUse" color-interpolation-filters="sRGB">
<feFlood flood-opacity="0" result="BackgroundImageFix"/>
<feColorMatrix in="SourceAlpha" type="matrix" values="0 0 0 0 0 0 0 0 0 0 0 0 0 0 0 0 0 0 127 0" result="hardAlpha"/>
<feOffset dy="4"/>
<feGaussianBlur stdDeviation="2"/>
<feComposite in2="hardAlpha" operator="out"/>
<feColorMatrix type="matrix" values="0 0 0 0 0 0 0 0 0 0 0 0 0 0 0 0 0 0 0.25 0"/>
<feBlend mode="normal" in2="BackgroundImageFix" result="effect1_dropShadow_102_819"/>
<feBlend mode="normal" in="SourceGraphic" in2="effect1_dropShadow_102_819" result="shape"/>
</filter>
<filter id="filter1_d_102_819" x="0" y="0" width="45" height="45" filterUnits="userSpaceOnUse" color-interpolation-filters="sRGB">
<feFlood flood-opacity="0" result="BackgroundImageFix"/>
<feColorMatrix in="SourceAlpha" type="matrix" values="0 0 0 0 0 0 0 0 0 0 0 0 0 0 0 0 0 0 127 0" result="hardAlpha"/>
<feOffset dy="4"/>
<feGaussianBlur stdDeviation="2"/>
<feComposite in2="hardAlpha" operator="out"/>
<feColorMatrix type="matrix" values="0 0 0 0 0 0 0 0 0 0 0 0 0 0 0 0 0 0 0.25 0"/>
<feBlend mode="normal" in2="BackgroundImageFix" result="effect1_dropShadow_102_819"/>
<feBlend mode="normal" in="SourceGraphic" in2="effect1_dropShadow_102_819" result="shape"/>
</filter>
<clipPath id="clip0_102_819">
<rect width="37" height="37" fill="white" transform="translate(4)"/>
</clipPath>
</defs>
</svg>
